<?xml version="1.0" encoding="iso-8859-1"?>
<!-- Generator: Adobe Illustrator 19.0.0, SVG Export Plug-In . SVG Version: 6.00 Build 0)  -->
<svg version="1.1" id="Layer_1" xmlns="http://www.w3.org/2000/svg" xmlns:xlink="http://www.w3.org/1999/xlink" x="0px" y="0px"
	 viewBox="0 0 512 512" style="enable-background:new 0 0 512 512;" xml:space="preserve">
<path style="fill:#FF7058;" d="M190.933,472c-2.133-3.2-4.267-6.4-6.4-9.6c-2.133-3.2-5.333-6.4-7.467-8.533
	C171.733,448.533,166.4,443.2,160,438.933h1.067c-1.067-1.067-3.2-3.2-4.267-4.267c-1.067-1.067-2.133-3.2-3.2-5.333
	c-2.133-3.2-4.267-6.4-5.333-10.667c-1.067-2.133-1.067-3.2-1.067-5.333c0-2.133,0-3.2,0-5.333c0-2.133,1.067-3.2,2.133-5.333
	c1.067-1.067,1.067-3.2,3.2-4.267l1.067-1.067h-12.8c0,0,0,1.067-1.067,1.067c-1.067,2.133-2.133,4.267-3.2,7.467
	c-1.067,2.133-1.067,5.333-1.067,8.533c0,3.2,0,5.333,1.067,8.533c1.067,5.333,3.2,9.6,6.4,13.867c1.067,2.133,3.2,4.267,4.267,6.4
	c2.133,2.133,3.2,3.2,5.333,5.333l0,0l0,0c5.333,4.267,10.667,8.533,16,12.8c2.133,2.133,5.333,4.267,7.467,7.467
	c2.133,2.133,4.267,5.333,6.4,7.467c2.133,3.2,3.2,5.333,4.267,8.533l1.067,4.267c0,1.067,0,3.2,0,4.267c0,2.133,0,3.2-1.067,5.333
	c0,2.133-1.067,3.2-2.133,4.267c-1.067,3.2-4.267,5.333-6.4,8.533l4.267-3.2c2.133-1.067,3.2-2.133,4.267-4.267
	c1.067-1.067,2.133-3.2,3.2-5.333c1.067-2.133,2.133-3.2,2.133-5.333c0-2.133,1.067-4.267,1.067-6.4l-1.067-6.4
	C194.133,478.4,192,475.2,190.933,472z"/>
<g>
	<path style="fill:#FFD15C;" d="M283.733,142.4c0,78.933-76.8,216.533-141.867,216.533S0,221.333,0,142.4S64,0.533,141.867,0.533
		S283.733,64.533,283.733,142.4z"/>
	<path style="fill:#FFD15C;" d="M117.333,402.667c0,0,1.067,0,1.067-1.067c5.333-3.2,11.733-1.067,14.933,5.333
		c0,0,0,1.067,1.067,1.067c4.267,7.467,14.933,7.467,18.133,0c0,0,0-1.067,1.067-1.067c3.2-5.333,9.6-7.467,14.933-5.333
		c0,0,1.067,0,1.067,1.067c7.467,4.267,17.067-2.133,16-10.667c-3.2-21.333-19.2-39.467-40.533-43.733l0,0l0,0l0,0l0,0
		c-22.4,4.267-38.4,22.4-40.533,43.733C101.333,400.533,109.867,406.933,117.333,402.667z"/>
</g>
<path style="opacity:0.1;fill:#231F20;enable-background:new    ;" d="M21.333,163.733c0-77.867,64-141.867,141.867-141.867
	c34.133,0,65.067,11.733,89.6,32c-25.6-32-66.133-53.333-110.933-53.333C64,0.533,0,64.533,0,142.4C0,202.133,44.8,296,93.867,337.6
	C53.333,290.667,21.333,214.933,21.333,163.733z"/>
<path style="fill:#FFD15C;" d="M416,470.933c-2.133-3.2-4.267-6.4-6.4-9.6c-2.133-3.2-5.333-6.4-7.467-8.533
	c-5.333-5.333-10.667-10.667-17.067-14.933h1.067c-1.067-1.067-3.2-3.2-4.267-4.267c-1.067-1.067-2.133-3.2-3.2-5.333
	c-2.133-3.2-4.267-6.4-5.333-10.667c-1.067-2.133-1.067-3.2-1.067-5.333s0-3.2,0-5.333c0-2.133,1.067-3.2,2.133-5.333
	c1.067-1.067,1.067-3.2,3.2-4.267l1.067-1.067h-12.8l0,0c-1.067,2.133-2.133,5.333-3.2,7.467s-1.067,5.333-1.067,8.533
	s0,5.333,1.067,8.533c1.067,5.333,3.2,9.6,6.4,13.867c1.067,2.133,3.2,4.267,4.267,6.4c2.133,2.133,3.2,3.2,5.333,5.333l0,0l0,0
	c5.333,4.267,10.667,8.533,16,12.8c2.133,2.133,5.333,4.267,7.467,7.467c2.133,2.133,4.267,5.333,6.4,7.467
	c2.133,3.2,3.2,5.333,4.267,8.533l1.067,4.267c0,1.067,0,3.2,0,4.267c0,2.133,0,3.2-1.067,5.333c0,2.133-1.067,3.2-2.133,4.267
	c-1.067,3.2-4.267,5.333-6.4,8.533l4.267-3.2c2.133-1.067,3.2-2.133,4.267-4.267c1.067-1.067,2.133-3.2,3.2-5.333
	c1.067-2.133,2.133-3.2,2.133-5.333s1.067-4.267,1.067-6.4l-1.067-6.4C419.2,478.4,418.133,475.2,416,470.933z"/>
<g>
	<path style="fill:#FF7058;" d="M512,143.467C512,222.4,434.133,360,369.067,360S226.133,221.333,226.133,143.467
		S291.2,0.533,369.067,0.533S512,64.533,512,143.467z"/>
	<path style="fill:#FF7058;" d="M344.533,402.667c0,0,1.067,0,1.067-1.067c5.333-3.2,11.733-1.067,14.933,5.333
		c0,0,0,1.067,1.067,1.067c4.267,7.467,14.933,7.467,18.133,0c0,0,0-1.067,1.067-1.067c3.2-5.333,9.6-7.467,14.933-5.333
		c0,0,1.067,0,1.067,1.067c7.467,4.267,17.067-2.133,16-10.667c-3.2-21.333-19.2-39.467-41.6-43.733l0,0l0,0l0,0l0,0
		c-22.4,4.267-38.4,22.4-41.6,43.733C328.533,400.533,337.067,406.933,344.533,402.667z"/>
</g>
<path style="opacity:0.1;fill:#231F20;enable-background:new    ;" d="M279.467,14.4c-38.4,25.6-62.933,69.333-62.933,118.4
	c0,52.267,34.133,129.067,74.667,176c44.8-35.2,85.333-119.467,85.333-173.867C377.6,76.267,334.933,26.133,279.467,14.4z"/>
<path style="fill:#FFD15C;" d="M282.667,411.2c-1.067-3.2-3.2-6.4-5.333-8.533c-2.133-3.2-4.267-5.333-6.4-7.467
	c-4.267-5.333-9.6-8.533-14.933-12.8l0,0c-1.067-1.067-2.133-2.133-3.2-4.267c-1.067-1.067-2.133-3.2-3.2-4.267
	c-2.133-3.2-3.2-6.4-4.267-9.6c0-1.067-1.067-3.2-1.067-4.267c0-1.067,0-3.2,0-4.267c0-1.067,1.067-3.2,1.067-4.267
	c1.067-1.067,1.067-2.133,2.133-4.267l1.067-1.067H236.8l0,0c-1.067,2.133-2.133,4.267-3.2,6.4
	c-1.067,2.133-1.067,4.267-1.067,7.467c0,2.133,0,5.333,1.067,7.467c1.067,4.267,3.2,8.533,5.333,12.8
	c1.067,2.133,2.133,3.2,4.267,5.333c1.067,2.133,3.2,3.2,4.267,5.333l0,0l0,0c4.267,3.2,9.6,7.467,13.867,10.667
	c2.133,2.133,4.267,4.267,6.4,6.4c2.133,2.133,4.267,4.267,5.333,6.4c2.133,2.133,3.2,5.333,4.267,7.467l1.067,4.267
	c0,1.067,0,3.2,0,4.267c0,1.067,0,3.2-1.067,4.267c0,1.067-1.067,3.2-1.067,4.267c-1.067,3.2-3.2,5.333-5.333,7.467l4.267-3.2
	c1.067-1.067,2.133-2.133,3.2-3.2s2.133-2.133,3.2-4.267c1.067-1.067,1.067-3.2,2.133-5.333c0-2.133,1.067-3.2,1.067-5.333
	l-1.067-5.333C285.867,417.6,284.8,414.4,282.667,411.2z"/>
<g>
	<path style="fill:#84DBFF;" d="M366.933,124.267c0,68.267-67.2,188.8-123.733,188.8S118.4,193.6,118.4,124.267
		S173.867,0.533,242.133,0.533S366.933,56,366.933,124.267z"/>
	<path style="fill:#84DBFF;" d="M220.8,351.467c0,0,1.067,0,1.067-1.067c4.267-3.2,10.667,0,12.8,4.267c0,0,0,1.067,1.067,1.067
		c3.2,6.4,12.8,6.4,16,0c0,0,0-1.067,1.067-1.067c2.133-4.267,8.533-7.467,12.8-4.267h1.067c6.4,3.2,14.933-2.133,13.867-9.6
		c-2.133-19.2-16-34.133-36.267-38.4l0,0l0,0l0,0l0,0c-19.2,4.267-33.067,20.267-36.267,38.4
		C205.867,349.333,214.4,354.667,220.8,351.467z"/>
</g>
<path style="opacity:0.1;fill:#231F20;enable-background:new    ;" d="M139.733,145.6c0-68.267,55.467-123.733,123.733-123.733
	c28.8,0,55.467,9.6,76.8,26.667c-22.4-28.8-57.6-48-98.133-48C173.867,0.533,118.4,56,118.4,124.267
	c0,52.267,39.467,135.467,84.267,171.733C167.467,255.467,139.733,190.4,139.733,145.6z"/>
<g>
</g>
<g>
</g>
<g>
</g>
<g>
</g>
<g>
</g>
<g>
</g>
<g>
</g>
<g>
</g>
<g>
</g>
<g>
</g>
<g>
</g>
<g>
</g>
<g>
</g>
<g>
</g>
<g>
</g>
</svg>
