<?xml version="1.0" encoding="iso-8859-1"?>
<!-- Generator: Adobe Illustrator 19.0.0, SVG Export Plug-In . SVG Version: 6.00 Build 0)  -->
<svg version="1.1" id="Layer_1" xmlns="http://www.w3.org/2000/svg" xmlns:xlink="http://www.w3.org/1999/xlink" x="0px" y="0px"
	 viewBox="0 0 511.998 511.998" style="enable-background:new 0 0 511.998 511.998;" xml:space="preserve">
<g>
	<path style="fill:#7E5F4D;" d="M335.66,124.275c-1.564-0.306-2.837-0.408-4.422-0.192c-0.671,0.092-2.534,0.382-3.796,1.097
		c-0.126,0.071-0.245,0.155-0.366,0.236c-0.071-0.01-0.138-0.028-0.211-0.037c-7.683-0.904-15.321,0.246-23.007,0.338
		c-3.781-1.015-7.778-1.529-11.227-1.952c-7.837-0.964-16.058-0.349-23.953-0.397c-2.61-0.017-5.171,0.052-7.722,0.149
		c-4.206-4.995-12.518-4.878-18.373-3.726c-3.135,0.617-7.215,2.16-10.038,4.647c-2.079,0.048-4.115,0.205-5.931,0.302
		c-4.017,0.213-7.99,0.899-11.855,2.043c-2.321,0.687-4.616,2.065-6.918,3.097c-1.502-0.171-2.973,0.382-4.127,1.392
		c-0.953,0.438-1.489,1.266-1.653,2.199c-0.724,1.558-0.851,3.427,0.017,5.219c4.214,8.701,14.555,4.494,21.681,3.513
		c1.079-0.149,2.183-0.239,3.298-0.307c0.088,0.062,0.162,0.138,0.268,0.186c9.283,4.178,17.308,4.059,27.349,3.006
		c5.327-0.559,10.502-0.338,15.835-0.222c4.289,0.093,8.288-0.031,11.621-2.796c3.267-0.176,6.539-0.327,9.833-0.424
		c7.857-0.229,15.759,1.285,23.597,1.334c2.54,0.015,5.532,0.363,8.179,0.065c1.518,0.82,3.298,0.922,5.089-0.055
		c2.526-1.378,3.659-4.806,3.605-7.566c0.242-0.148,0.483-0.299,0.736-0.442c1.656-0.929,3.129-1.581,4.543-2.932
		C340.112,129.749,339.114,124.949,335.66,124.275z"/>
	<path style="fill:#7E5F4D;" d="M470.758,218.894c-0.899-7.239-3.298-14.978-5.23-21.996c-1.633-5.931-2.218-13.027-5.577-18.358
		c-2.452-3.892-8.587-8.512-13.327-6.26c-0.071,0.034-0.141,0.078-0.213,0.115c-4.532-6.027-10.136-10.976-16.348-15.55
		c-3.576-2.634-7.025-4.661-10.944-6.711c-2.125-1.111-4.271-2.424-6.502-3.46c0.102-3.837-2.78-7.699-6.458-9.308
		c-3.176-1.389-6.954-1.203-10.355-1.476c-4.088-1.6-7.976-3.372-12.586-3.363c-1.22,0.003-2.298,0.253-3.253,0.662
		c-0.341,0.006-0.679,0.025-1.003,0.08c-3.392-2.057-9.391-0.544-9.627,4.816c-0.029,0.72-0.102,1.376-0.177,2.004
		c-0.115,0.229-0.321,0.483-0.704,0.959c-2.201,2.743-2.288,6.887,1.138,8.83c2.865,1.624,4.633,0.471,7.655,0.42
		c3-0.05,6.474,1.559,9.179,2.718c1.662,0.712,3.246,0.773,4.627,0.397c0.35,0.817,1.061,1.485,2.055,1.86
		c2.363,0.892,4.788,1.642,7.18,2.476c0.524,0.643,1.164,1.218,1.941,1.687c3.298,1.987,6.987,3.569,10.481,5.281
		c0.164,0.094,0.325,0.195,0.49,0.288c3.31,1.852,3.14,1.837,6.692,5.042c5.918,5.34,10.899,10.182,14.307,17.43
		c3.318,7.057,4.642,13.414,4.531,21.526c-0.001,0.057-0.005,0.116-0.005,0.173c-1.422,0.76-2.614,1.957-3.358,3.667
		c-1.113,2.562-2.059,5.171-3.008,7.781c-0.571,1.209-1.157,2.409-1.874,3.539c-0.683,1.076-1.431,2.144-2.195,3.205
		c-2.29,1.652-4.51,3.417-6.72,5.139c-3.853,3.003-7.772,5.981-11.722,8.913c-0.573-0.008-1.158,0.022-1.757,0.118
		c-6.093,0.987-12.381,4.699-18.085,7.093c-4.038,1.694-8.028,3.376-12.084,4.939c-1.842-0.564-3.783-1.01-5.862-1.348
		c-6.853-1.113-13.793-1.068-20.7-0.585c-6.073-0.339-12.062-0.466-18.214,0.222c-6.98,0.78-13.949,1.578-20.923,2.359
		c-7.039-1.445-14.066-1.124-21.674-0.764c-10.569,0.501-21.155,0.2-31.731,0.715c-10.862,0.529-21.773,1.316-32.527,3.027
		c-1.605,0.255-3.223,0.504-4.848,0.754c-19.469-1.846-38.89-3.236-58.421-2.396c-8.262-1.452-16.184-3.42-24.284-6.158
		c-0.778-0.262-1.665-0.573-2.62-0.899c-2.069-1.651-4.121-3.343-6.43-4.815c-7.293-4.653-15.455-4.967-23.502-5.211
		c-2.15-1.789-4.2-3.712-6.144-5.774c-2.092-2.219-3.019-5.113-5.609-6.875c-0.673-0.457-1.433-0.688-2.183-0.917
		c-0.516-1.168-1.029-2.338-1.539-3.498c-1.465-3.332-2.623-6.792-4.476-9.777c-0.511-1.397-1.099-2.759-1.799-4.074
		c3.273-5.274,6.856-10.958,7.024-17.339c0.474-0.819,0.958-1.633,1.457-2.439c0.536-0.865,0.851-1.752,0.994-2.633
		c2.378-1.322,4.669-2.757,6.832-4.07c6.72-4.08,13.992-7.583,20.918-11.353c4.628-2.518,9.257-5.046,13.916-7.509
		c1.344-0.428,2.685-0.833,4.015-1.209c6.608-1.866,15.346-4.492,19.517-10.499c3.578-0.982,7.135-1.875,10.615-2.117
		c3.05,4.808,9.8,1.324,10.405-3.53c1.389-11.134-11.991-12.207-19.874-10.275c-2.431,0.596-4.815,1.413-7.158,2.346
		c-3.54,1.149-7.038,2.95-9.977,4.453c-0.893,0.456-1.773,0.94-2.647,1.437c-2.21-0.079-4.392,0.164-6.557,0.628
		c-1.757-1.296-3.639-2.296-6.06-2.332c-5.069-0.078-9.932,3.676-13.759,6.595c-0.769,0.586-1.518,1.19-2.274,1.787
		c-0.251,0.106-0.499,0.206-0.754,0.321c-6.559,2.916-12.892,6.954-18.685,11.295c-2.135,1.186-4.265,2.39-6.401,3.618
		c-1.415,0.813-2.769,1.678-4.09,2.573c-3.724,0.888-7.295,4.695-9.872,8.088c-0.633,0.614-1.257,1.236-1.871,1.867
		c-1.871-0.028-3.726,0.594-5.129,2.071c-0.825,0.87-1.552,1.808-2.222,2.783c-2.813,0.038-5.49,1.311-6.731,4.204
		c-4.304,10.038-7.441,20.072-9.982,30.709c-0.502,2.103-1.317,4.543-2.159,7.139c-1.944,1.553-3.253,3.85-3.187,6.773
		c0.019,0.834,0.062,1.664,0.106,2.494c-0.899,1.34-1.467,3.005-1.516,5.009c-0.055,2.214-0.177,4.405-0.303,6.588
		c-0.615,8.457-1.946,16.848-1.652,25.361c0.349,10.104,0.991,20.172,1.475,30.267c0.46,9.583,1.931,20.053,5.187,29.118
		c0.531,1.48,1.185,3.134,1.96,4.8c0.92,5.246,2.234,10.458,3.42,15.572c1.639,7.078,5.271,12.907,8.591,19.284
		c6.29,12.085,14.409,23.881,24.328,33.247c0.348,0.329,0.707,0.648,1.057,0.975c0.567,0.913,1.116,1.839,1.6,2.809
		c3.811,7.637,9.503,14.293,14.983,20.904c10.979,13.247,24.142,24.765,39.008,33.31c7.759,4.46,15.829,8.415,24.197,11.574
		c9.557,3.608,18.867,5.055,28.908,6.548c21.116,3.14,41.683,5.364,63.013,3.513c9.55-0.829,19.127-1.62,28.379-4.036
		c10.332,0.706,20.635,0.653,30.933-1.448c12.006-2.451,23.658-5.205,35.101-9.699c2.009-0.789,3.888-1.75,5.768-2.724
		c3.746-0.339,7.516-1.358,10.932-2.595c9.703-3.512,18.484-10.1,25.791-17.272c2.345-2.302,4.628-4.735,6.805-7.27
		c6.033-5.545,11.665-11.661,16.712-18.018c3.693-3.103,6.75-6.265,8.196-8.095c9.382-11.871,18.058-25.593,23.653-39.655
		c5.098-12.814,10.559-25.47,15.895-38.166c2.926-6.963,4.787-14.294,6.366-21.677c1.718-8.039,1.27-15.425,1.643-23.463
		c0.292-6.271,0.308-16.466-3.977-22.141C471.445,250.715,472.719,234.674,470.758,218.894z"/>
</g>
<g>
	<path style="fill:#E2D7D3;" d="M429.309,183.915c-1.569-3.237-3.643-6.29-5.353-8.764c-3.247-4.699-6.879-7.726-11.511-11.023
		c-3.954-2.815-8.346-3.124-12.791-4.481c-4.516-1.38-8.494-4.217-13.142-4.938c-3.776-0.585-8.159-1.568-11.945-0.89
		c-0.687,0.122-1.413,0.234-2.145,0.357c-1.56-1.106-3.809-1.372-5.488-0.408c-3.084,1.772-3.739,5.285-4.048,8.535
		c-0.371,3.893-0.434,7.399,0.543,10.977c-0.564,1.604-0.396,3.363,0.803,4.735c3.109,3.555,9.368,1.233,13.411,2.436
		c4.808,1.431,8.555,3.8,11.979,7.131c2.673,2.6,4.357,4.546,5.628,6.726c-0.47,1.158-0.901,2.343-1.306,3.535
		c-1.363,2.501-2.894,5.113-3.865,7.583c-1.787,1.245-3.475,2.704-5.124,4.013c-8.227,3.189-18.004,6.488-24.186,12.81
		c-4.646,1.613-9.304,3.191-14,4.673c-1.489,0.033-2.978,0.069-4.466,0.127c-8.804,0.345-17.755,1.636-26.537,3.475
		c-1.003-0.062-1.985-0.117-2.927-0.178c-7.351-0.484-14.951-0.995-22.307-1.09c-7.509-0.098-15.062,0.656-22.468,1.832
		c-1.213,0.192-2.442,0.423-3.678,0.662c-0.536-0.555-1.181-1.031-1.972-1.372c-9.025-3.904-19.363-3.845-29.094-4.174
		c-10.728-0.364-21.503-0.145-32.228-0.722c-5.157-0.278-10.192-0.932-15.23-2.102c-5.53-1.284-11.959-2.545-17.103-4.96
		c-4.949-2.325-9.525-5.684-13.742-9.108c-1.959-1.591-3.451-3.279-5.216-5.06c-0.062-0.062-0.517-0.456-1.078-0.921
		c-0.494-2.252-0.852-4.518-1.541-6.72c0.148-1.115,0.294-2.229,0.431-3.345c0.924-0.567,1.843-1.122,2.759-1.641
		c5.995-3.386,13.623-5.56,18.277-10.802c0.51-0.241,1.018-0.496,1.53-0.717c3.515-1.518,7.694-1.945,10.81-4.251
		c2.554-1.89,3.662-4.867,2.056-7.841c-0.252-0.466-0.457-0.94-0.647-1.415c0.227-0.828,0.231-1.72-0.08-2.61
		c-0.408-1.169-1.099-2.173-1.725-3.112c-0.008-0.019-0.011-0.032-0.02-0.052c-0.199-0.75-0.429-1.492-0.692-2.223
		c-0.136-0.373-0.29-0.711-0.443-1.051c-0.308-2.211-2.05-4.32-4.173-5.178c-0.306-0.124-0.61-0.247-0.916-0.371
		c-2.837-1.146-5.06,0.29-6.143,2.483c-1.555,0.445-3.657,0.735-4.614,1.052c-0.141,0.047-0.283,0.089-0.424,0.135
		c-3.206-0.53-6.401,0.448-9.972,1.214c-5.295,1.138-10.674,2.013-15.9,3.619c-7.432,2.284-14.8,6.875-21.619,11.351
		c-0.273,0.12-0.54,0.25-0.801,0.39c-1.493,0.799-2.881,1.85-4.225,2.92c-0.213,0.14-0.429,0.282-0.641,0.42
		c-0.692,0.451-1.252,0.949-1.712,1.476c-0.48,0.396-0.96,0.794-1.446,1.182c-0.042,0.033-0.068,0.054-0.103,0.083
		c-0.125,0.09-0.315,0.232-0.595,0.442c-8.686,6.498-18.016,15.475-18.829,26.973c-0.243,3.446,0.459,6.498,1.353,9.76
		c0.318,1.16,0.499,2.31,1.014,3.417c0.662,1.425,2.503,3.656,0.771,1.078c3.549,5.281,7.96,8.869,13.983,11.462
		c6.487,2.794,13.52,3.631,20.249,5.517c0.599,0.168,1.187,0.33,1.772,0.489c3.004,2.646,6.838,4.688,10.215,6.183
		c3.732,1.652,8.508,2.848,13.309,3.132c0.93,1.11,2.275,1.992,4.149,2.442c5.585,1.341,11.399,1.385,17.099,1.865
		c6.834,0.575,13.451,2.335,20.195,3.481c11.094,1.884,22.075,3.366,32.723-0.308c8.553,0.339,17.107,0.418,25.737,0.534
		c7.939,0.106,16.103,0.065,23.919-1.49c2.236-0.445,5.297-1.125,8.01-2.324c1.316-0.028,2.634-0.083,3.966-0.197
		c5.201-0.445,11.95-0.92,16.962-3.599c2.568,0.192,5.148,0.296,7.763,0.201c0.562-0.02,1.15-0.042,1.736-0.062
		c0.633,0.431,1.39,0.783,2.285,1.029c19.56,5.371,41.253,4.098,60.712-0.932c9.881-2.554,20.058-5.168,29.327-9.508
		c0.538-0.252,1.092-0.506,1.651-0.762c1.237,1.35,2.967,2.2,5.126,2.045c8.19-0.589,12.309-6.927,16.153-13.393
		c2.676-4.503,4.031-8.597,4.425-13.121c1.441-1.871,2.176-4.364,1.589-7.312c-0.262-1.317-0.545-2.96-0.637-4.594
		c0.847-2.927,1.467-5.932,1.794-9.089C435.091,187.69,432.543,184.982,429.309,183.915z"/>
	<path style="fill:#E2D7D3;" d="M328.227,144.849c-0.806-0.601-1.978-0.766-2.955-0.759c-0.557,0.004-0.976,0.076-1.382,0.2
		c-1.042-0.641-2.335-0.948-3.828-0.678c-4.364,0.791-9.241,0.887-13.909,1.585c-2.973,0.064-5.995,0.349-9.094,0.701
		c-8.146,0.924-17.505,1.494-25.647,0.227c-8.767-1.366-17.172-1.852-26.035-0.796c-1.972,0.234-4.475,0.473-7.111,0.856
		c-3.938-1.573-8.441-1.87-12.678-2.083c-6.815-0.341-11.578,1.507-17.888,3.481c-2.878,0.901-4.06,5.001-2.427,7.209
		c0.045,0.829,0.134,1.646,0.22,2.394c0.403,3.488,1.545,6.811,3.115,9.935c1.457,2.899,4.837,2.661,6.796,0.845
		c1.287,0.046,2.567-0.05,3.665-0.159c4.642-0.464,9.32-1.237,13.97-1.893c0.019,0.014,0.033,0.032,0.054,0.046
		c3.669,2.45,8.02,2.884,12.284,3.34c6.679,0.715,13.055,0.915,19.768,1c6.234,0.08,12.414-0.21,18.642-0.619
		c3.056-0.201,5.837-0.321,8.469-0.945c2.433-0.056,4.809-0.311,7.002-0.897c5.075,0.652,10.132,1.894,15.061,2.922
		c0.059,0.062,0.117,0.124,0.176,0.185c0.894,0.945,1.74,1.967,2.885,2.619c1.893,1.076,4.633,0.869,6.16-0.795
		c1.545-1.683,1.948-4.134,0.795-6.16c-0.321-0.566-0.736-1.059-1.186-1.522c0.108-0.299,0.228-0.597,0.31-0.901
		c2.818-3.177,4.237-7.602,5.257-11.804c0.437-0.331,0.839-0.73,1.153-1.264C331.237,148.78,330.218,146.331,328.227,144.849z"/>
</g>
<g>
	<path style="fill:#A1857C;" d="M187.051,189.378c-0.158-0.429-0.28-1.443-0.237-0.182c-0.022-0.625-0.131-1.274-0.237-1.888
		c-0.182-1.05-0.534-2.143-1.038-3.076c-0.345-0.639-0.795-1.209-1.311-1.687c-0.627-1.029-1.631-1.873-3.025-2.38
		c-3.127-1.136-6.509,0.334-9.378,2.176c-5.336,1.912-10.764,6.778-14.535,11.146c-1.174,0.6-2.225,1.338-2.973,2.183
		c-2.887,3.26-5.354,9.224-1.31,12.586c1.168,0.971,2.883,1.808,4.446,1.174c0.104-0.042,0.21-0.084,0.315-0.127
		c1.568-0.634,2.446-1.583,2.828-3.038c1.161-1.013,2.4-1.927,3.629-2.876c0.688-0.532,1.457-1.078,2.194-1.667
		c2.945-1.127,5.684-2.715,8.495-4.146c1.415,0.78,3.27,1.006,4.609,0.027c0.471-0.345,0.976-0.707,1.471-1.085
		c1.187,0.135,2.511-0.054,3.452-0.735C186.359,194.393,187.963,191.864,187.051,189.378z"/>
	<path style="fill:#A1857C;" d="M317.072,186.645c1.45-2.606,2.274-5.405,1.778-7.823c-0.338-1.648-1.804-2.818-3.316-3.316
		c-6.126-2.017-12.993-1.801-19.335-2.685c-7.467-1.041-15.224-0.893-22.767-1.129c-8.525-0.266-17.023-0.088-25.528-0.758
		c-4.935-0.389-9.422,0.352-14.234,1.269c-5.406,1.031-10.827-0.197-16.09,0.8c-0.959-1.149-2.311-1.832-4.005-1.577
		c-2.011,0.303-4.265,2.211-3.969,4.497c0.055,0.423,0.12,0.824,0.204,1.211l-0.039,0.005c0.172,0.424,0.287,0.899,0.403,1.386
		c-0.066,3.759-0.916,8.469,1.094,11.513c0,0.006,0,0.009,0.001,0.017c0.064,0.845,0.05,1.642,0.204,2.49
		c0.575,3.148,5.546,3.752,6.937,0.907c0.373-0.762,0.568-1.524,0.643-2.293c3.417,1.399,7.206,1.977,10.848,2.748
		c-0.05,0.594,0.148,1.196,0.726,1.671c3.395,2.788,7.822,4.695,12.098,5.601c0.832,0.176,1.884,0.436,3.01,0.659
		c3.252,2.27,9.256,5.39,14.486,5.781c1.941,0.576,3.813,0.824,5.725,0.685c0.437,0.059,0.875,0.097,1.313,0.075
		c2.334-0.115,4.652-0.857,6.939-1.336c5.623-1.177,11.779-2.545,17.131-4.701c4.871-1.962,9.643-5.369,12.205-9.876
		c0.592-0.22,1.185-0.436,1.776-0.664c0.278,0.66,0.708,1.303,1.311,1.986c0.831,0.941,2.54,1.138,3.589,0.462
		c0.363-0.234,0.734-0.508,1.106-0.799c0.125,0.124,0.257,0.241,0.406,0.343c0.032,0.023,0.065,0.045,0.097,0.066
		c1.102,0.755,2.59,0.131,3.162-0.962c0.506-0.637,1-1.358,1.391-2.024c0.483-0.822,0.857-1.853,0.824-2.829
		C317.257,187.558,317.232,187.127,317.072,186.645z"/>
	<path style="fill:#A1857C;" d="M387.733,197.304c-0.061-1.692-1.199-3.745-2.968-4.251c0.467-1.603-0.004-3.396-2.031-4.506
		c-4.46-2.442-9.102-5.759-14.342-6.202c-2.06-0.175-4.58,0.187-6.676,1.169c-1.637-0.149-3.302,0.615-3.6,2.544
		c-0.073,0.473-0.177,0.94-0.273,1.408c-0.112,0.334-0.19,0.688-0.239,1.059c-0.084,0.248-0.168,0.497-0.27,0.745
		c-1.224,1.678-2.507,3.313-3.442,5.177c-0.953,1.898-0.489,4.148,1.389,5.297c3.53,2.16,7.209,3.529,10.706,5.557
		c1.642,0.953,3.419,1.722,4.904,2.943c1.288,1.057,2.236,2.517,3.906,3.038C382.074,213.55,387.945,203.167,387.733,197.304z"/>
</g>
<g>
	<path style="fill:#FFFFFF;" d="M314.756,198.153c-0.372-2.056-2.512-3.201-4.39-3.341c-4.013-0.302-7.907,2.459-11.609,3.638
		c-4.229,1.348-7.385,4.13-11.128,6.306c-4.538,2.636-9.968,3.027-15.035,3.833c-1.459,0.232-2.93,0.559-4.409,0.913
		c-2.471-1.211-5.12-1.713-7.82-2.043c-2.701-1.209-5.591-1.843-8.611-2.884c-3.73-1.284-7.345-3.352-11.368-3.405
		c-0.368-0.005-0.727,0.059-1.08,0.155c-1.771-1.292-3.949-2.662-5.873-3.488c-2.526-1.084-5.157-1.517-7.441-0.868
		c-3.083-1.349-6.517-2.098-9.574-1.496c-0.265,0.052-0.516,0.111-0.753,0.175c-0.724-0.094-1.368,0.214-1.799,0.735
		c-1.959,1.199-2.223,3.265-1.952,6.308c0.563,6.313,1.455,12.945,4.586,18.533c0.902,1.61,2.32,2.12,3.664,1.904
		c0.91,0.787,1.955,1.31,3.07,1.605c0.496,0.483,1.111,0.847,1.853,1.005c6.093,1.298,12.407,0.813,18.59,0.532
		c3.213-0.145,6.838-0.082,10.271-0.46c0.236,0.099,0.483,0.186,0.749,0.248c3.631,0.847,7.771,0.296,11.793-0.255
		c0.591,0.329,1.284,0.539,2.097,0.546c4.295,0.039,8.628-0.943,12.972-1.847c1.778-0.183,3.553-0.399,5.323-0.651
		c4.298,0.529,8.697,1.163,12.569,0.259c0.553,1.679,2.692,2.481,4.301,1.6c0.371-0.204,0.764-0.482,1.053-0.794
		c0.056-0.061,0.783-0.962,0.35-0.451c0.424-0.501,0.884-1.001,1.232-1.558c0.375-0.603,0.553-1.252,0.646-1.944
		c0.062-0.468-0.102-0.903-0.113-1.34c0.02,0.734-0.006-0.122-0.065-0.489c-0.096-0.589-0.52-1.065-1.055-1.355
		c0.972-2.033,1.794-4.152,2.774-5.702C311.096,208.095,315.664,203.177,314.756,198.153z"/>
	<path style="fill:#FFFFFF;" d="M364.994,204.869c-0.178-0.671-0.4-1.32-0.88-1.866c-0.665-0.755-1.576-1.434-2.451-1.918
		c-1.391-0.771-2.894-0.994-4.427-0.874c-0.483-1.172-2.032-1.749-3.213-1.531c-3.576,0.66-4.211,5.656-5.762,8.409
		c-1.139,2.022-2.148,4.087-3.047,6.225c-0.869,2.066-2.148,3.773-2.195,6.057c-0.033,1.596,1.391,2.997,2.977,2.978
		c4.079-0.048,7.936-1.755,11.532-3.545c1.878-0.934,3.713-1.949,5.69-2.664c1.464-0.529,2.969-0.682,4.364-1.363
		c0.959-0.469,1.536-1.647,1.535-2.676C369.118,209.772,367.127,206.848,364.994,204.869z"/>
	<path style="fill:#FFFFFF;" d="M186.875,205.398c0.055-0.688-0.195-1.349-0.656-1.889c-0.157-0.46-0.306-0.912-0.437-1.345
		c0.027-0.093,0.043-0.187,0.042-0.279c-0.075-4.278-5.851-2.674-8.136-2.54c-2.692,0.157-4.899,0.991-7.425,1.958
		c-2.215,0.847-3.861,2.61-5.864,3.846c-1.266,0.781-1.888,2.283-1.517,3.727c0.897,3.495,4.524,3.745,7.327,5
		c3.634,1.627,7.297,2.929,10.972,4.41c0.367,0.148,0.744,0.266,1.122,0.361c0.022,0.008,0.043,0.01,0.065,0.018
		c0.022,0.005,0.045,0.011,0.066,0.017c0.303,0.094,0.62,0.145,0.945,0.154c2.606,0.278,5.085-0.832,5.425-4.013
		C189.12,211.909,187.964,208.496,186.875,205.398z"/>
</g>
<path style="fill:#F05161;" d="M275.729,90.449c-0.003-0.359-0.011-0.722-0.062-1.102c-0.777-5.786-7.867-9.411-14.17-12.086
	c-0.02-0.024-0.036-0.048-0.056-0.071c-4.16-4.791-9.607-7.842-14.886-11.216c-6.145-3.929-12.313-7.788-18.485-11.695
	c-6.274-3.971-12.545-7.813-18.883-11.666c-6.735-4.094-15.53-6.269-21.323-11.711c-5.47-5.139-12.295-2.079-14.567,3.08
	c-0.432-0.066-0.876-0.068-1.318,0.009c-3.152,0.55-6.011,3.055-8.541,6.131c-2.311,2.031-4.45,4.418-6.473,6.955
	c-0.754,0.343-1.478,0.888-2.129,1.689c-6.794,8.372-13.183,16.768-20.336,24.859c-5.825,6.59-12.002,12.853-18.154,19.145
	c-2.611,2.671-5.174,5.32-7.557,8.227c-2.916,3.559-4.019,7.397-6.202,11.325c-1.857,3.34-4.171,6.432-6.154,9.713
	c-0.789,1.304-2.06,2.408-3.478,3.522c-1.307,0.745-2.503,1.68-3.46,2.753c-4.252,4.774,2.329,11.452,7.046,7.046
	c0.217-0.225,0.474-0.461,0.746-0.693c3.487,0.325,6.867,0.762,10.466,0.572c4.066-0.215,7.467-0.222,11.399,0.888
	c5.769,1.629,13.495,5.145,18.029,1.163c6.916,0.648,13.563-1.219,20.415-2.242c4.322-0.646,4.238-0.506,9.432-0.078
	c3.415,0.282,7.623,0.289,10.485,2.411c3.312,2.456,7.111,0.87,9.244-1.978c2.362,0.041,4.588-1.322,6.648-2.372
	c3.029-1.543,6.043-2.586,9.332-3.536c7.232-2.088,14.499-2.103,21.862-3.285c3.881-0.623,5.131-3.814,4.669-6.948
	c2.134-1.721,4.064-3.78,6.237-5.404c4.507-3.367,8.796-5.815,14.083-7.805c4.624-1.74,9.388-2.892,14.053-4.522
	c4.108-1.436,8.937-1.652,11.36-5.757C275.985,94.099,276.157,92.198,275.729,90.449z"/>
<g>
	<path style="fill:#FFD274;" d="M211.662,202.127c-1.414-7.98-2.642-15.996-3.996-23.984c-1.222-7.213-2.489-14.029-2.618-21.379
		c-0.11-6.21-1.843-12.447-0.512-18.628c1.383-6.424-6.508-9.353-10.214-4.306c-1.587,2.162-4.614,3.943-6.986,6.25
		c-2.115-2.011-6.211,0.364-5.465,3.548c1.79,7.63,2.582,15.749,4.015,23.476c1.389,7.488,3.008,14.972,4.163,22.499
		c1.164,7.578,2.111,15.163,3.346,22.708c0.475,2.901,1.169,5.799,3.768,7.476c2.531,1.633,5.921,1.183,8.82,1.726
		c2.429,0.455,5.043-0.29,6.322-2.573C215.172,213.825,212.611,207.482,211.662,202.127z"/>
	<path style="fill:#FFD274;" d="M180.692,23.194c-0.652-2.597-1.442-4.944-1.805-7.594c-0.385-2.813-1.196-5.352-1.79-8.075
		c-1.332-6.106-10.953-4.715-10.839,1.467c0.051,2.832,0.907,5.652,1.103,8.504c0.211,3.08,1.006,5.907,1.643,8.92
		C170.608,34.004,182.605,30.807,180.692,23.194z"/>
</g>
<path style="fill:#009362;" d="M467.591,35.275c-0.111-0.327-0.187-0.662-0.279-0.994c-0.005-0.019-0.011-0.039-0.017-0.059
	c-1.241-4.581-0.727-9.486-2.386-13.932c-1.42-3.806-5.016-6.369-9.218-5.233c-7.697,2.083-15.633,6.99-22.731,10.618
	c-8.173,4.177-15.28,10.236-23.46,14.432c-7.969,4.088-15.198,9.357-23.109,13.516c-4.033,2.121-8.006,3.806-11.689,6.522
	c-3.49,2.573-6.713,4.788-10.526,6.809c-6.87,3.637-13.309,7.887-14.503,15.818c-1.329,8.82-4.439,16.978-6.681,25.549
	c-2.247,8.592-3.985,17.319-5.941,25.987c-0.209,0.655-0.405,1.313-0.629,1.964c-1.966,5.675-3.515,11.506-5.341,17.232
	c-1.508,4.726-2.685,9.248-1.885,14.195c-2.027,6.317-4.516,12.628-7.039,18.625c-2.126,5.055-4.594,10-6.363,15.199
	c-0.006,0.019-0.013,0.04-0.019,0.059c-0.894,2.146-1.497,4.569-1.945,7.048c-0.688,2.777-1.391,5.546-2.455,8.19
	c-0.717,1.783-0.349,3.425,0.603,4.717c-0.201,4.954,6.476,8.515,9.517,4.148c0.322,0.121,0.648,0.224,0.981,0.283
	c3.822,0.675,7.478,0.197,10.749-1.462c2.245,0.866,5.232,0.229,6.771-1.971c2.095-2.995,2.964-6.783,4.402-10.103
	c1.499-3.459,2.775-5.605,2.149-9.573c-0.02-0.131-0.062-0.25-0.093-0.376c2.033-3.502,3.978-7.104,5.772-10.634
	c5.485-10.793,12.298-24.054,11.23-36.443c-0.12-1.394-0.554-2.671-1.199-3.795c1.803-6.678,3.261-13.475,5.066-20.149
	c1.587-3.307,3.177-6.592,4.536-9.881c0.992-2.401,1.897-4.83,2.768-7.272c5.481-6.527,7.451-17.154,8.436-25.054
	c0.034-0.271,0.053-0.535,0.064-0.792c0.71-0.525,1.422-1.05,2.131-1.559c6.364-4.56,13.893-7.266,20.75-11.028
	c15.308-5.503,30.913-9.993,46.28-15.423c6.987-2.469,19.55-2.952,19.377-12.949C471.583,42.932,469,39.425,467.591,35.275z"/>
<path d="M501.637,268.061c-3.29-3.023-5.89-3.93-10.513-4.325c-4.139-0.354-8.299-0.466-12.439-0.191
	c0.032-5.074-0.008-10.218-0.203-15.277c-0.322-8.401-0.781-17.046-1.955-25.389c-1.325-9.414-1.787-18.787-3.338-28.203
	c-2.783-16.9-17.756-31.095-31.184-40.331c-7.011-4.823-14.257-9.986-21.812-13.921c-7.332-3.819-14.647-7.829-22.714-9.913
	c-4.257-1.099-8.494-2.431-12.765-3.461c-2.764-0.668-5.534-0.647-8.287-0.884c0.225-0.49,0.448-0.983,0.661-1.48
	c1.994-4.662,3.861-9.43,5.647-14.177c1.46-3.883,2.163-7.462,2.507-11.516c0.367-4.344,0.769-7.954,4.959-9.74
	c3.986-1.698,7.746-3.481,11.632-5.349c5.116-2.457,10.866-3.788,16.139-5.909c9.731-3.916,19.825-6.925,29.693-10.479
	c8.331-3.001,18.816-4.391,26.079-9.695c6.718-4.907,2.353-12.992-0.259-19.081c-3.484-8.121-4.758-18.065-9.512-25.605
	c-4.367-6.926-10.932-0.701-15.791,1.722c-8.178,4.078-16.063,8.721-24.089,13.123c-7.872,4.317-16.444,8.186-23.703,13.434
	c-7.508,5.429-16.141,9.607-24.426,13.707c-3.903,1.931-7.703,4.06-11.621,5.976c-4.564,2.232-8.493,4.926-12.847,7.488
	c-8.065,4.744-5.729,12.717-7.935,20.437c-2.911,10.183-4.729,20.677-7.664,30.859c-0.321-0.171-0.66-0.317-1.042-0.4
	c-17.562-3.829-35.963-0.571-53.677-2.946c-8.897-1.192-18.698-1.948-27.666-1.014c-0.962,0.101-1.922,0.186-2.88,0.269
	c5.009-2.878,9.843-5.894,15.517-7.648c4.53-1.401,17.465-3.266,21.689-8.703c1.539-1.316,2.364-3.214,1.875-6.169
	c-1.678-10.143-15.179-15.87-22.82-20.586c-10.99-6.782-21.8-13.926-32.978-20.414c-9.218-5.35-17.83-11.128-27.172-15.9
	c-5.424-2.772-10.443-6.372-15.726-9.331c-1.722-0.964-3.813-1.995-6.018-2.845c0-0.043,0.01-0.079,0.01-0.122
	c-0.043-3.279-1.86-6.452-2.453-9.721c-0.595-3.281-1.107-6.693-2.498-9.765c-2.743-6.055-10.247-5.028-15.466-3.033
	c-5.54,2.117-5.387,7.531-3.303,12.497c1.625,3.875,2.034,7.46,3.036,11.52c0.315,1.279,0.934,2.247,1.608,3.377
	c-0.334,0.401-0.668,0.805-1.005,1.205c-2.571,3.051-4.81,6.33-7.174,9.526c-6.064,5.804-11.699,12.048-17.133,18.437
	c-4.512,5.304-9.092,10.475-13.726,15.604c-3.163,3.236-6.227,6.622-9.197,10.058c-0.738,0.797-1.467,1.596-2.206,2.395
	c-3.693,3.986-7.661,8.023-11.058,12.234c-0.513,0.637-0.962,1.324-1.378,2.034c-1.171,1.339-2.324,2.692-3.442,4.069
	c-6.713,8.265-14.553,17.011-18.796,26.977c-2.28,2.713-4.238,5.801-3.078,8.976c0.716,1.958,2.126,2.985,4.171,3.176
	c2.624,0.245,5.419-2.079,7.962-2.841c4.739-1.42,9.772-2.777,14.767-2.409c4.264,0.315,8.557,1.046,12.664,2.293
	c-3.507,1.29-7.057,2.45-10.465,3.992c-3.995,1.809-8.089,3.536-11.921,5.67c-3.968,2.21-8.177,3.746-11.862,6.415
	c-3.318,2.403-7.088,4.075-10.446,6.474c-3.697,2.641-7.303,5.527-10.714,8.527c-6.429,5.653-11.964,13.485-15.628,21.2
	c-3.736,7.867-6.298,16.266-9.151,24.476c-1.778,5.116-2.433,11.214-4.646,15.991c-2.614-1.274-10.288-3.08-12.388,0.018
	c-3.804,5.634,11.639,7.471,11.555,8.615c-0.065,0.869-0.129,1.739-0.158,2.601c-0.183,5.462-0.436,10.9-0.596,16.351
	c-6.757,1.363-13.234,3.618-19.516,6.378c-3.131,1.376-0.902,6.67,2.339,5.548c5.047-1.749,11.197-2.015,17.035-2.155
	c0,0.115-0.004,0.228-0.003,0.341c0.074,9.586,1.855,18.598,2.794,28.048c1.778,17.902,5.568,36.193,10.2,53.578
	c0.125,0.469,0.265,0.94,0.403,1.411c-0.69,0.459-1.38,0.926-2.065,1.427c-0.834,0.609-1.613,1.297-2.364,2.019
	c-0.507,0.315-1.02,0.618-1.518,0.947c-3.127,2.062-7.09,4.406-7.978,8.286c-0.6,2.62,1.261,5.219,3.819,5.381
	c0.452,0.028,0.924-0.011,1.41-0.152h-0.238c0.59-0.135,1.136-0.257,1.722-0.504c1.774-0.748,3.257-2.139,4.796-3.266
	c1.885-1.381,3.848-2.637,5.819-3.88c1.997,5.248,4.332,10.404,6.838,15.224c-4.763,3.429-13.457,7.881-11.697,14.019
	c0.702,2.447,3.173,3.724,5.6,3.18c2.555-0.572,4.294-2.871,6.344-4.366c1.842-1.344,3.56-2.646,5.234-4.028
	c3.064,4.256,6.399,8.293,9.348,12.661c0.429,0.637,0.888,1.257,1.325,1.889c-1.271,1.214-2.535,2.433-3.764,3.673
	c-2.857,2.883-5.056,5.62-5.387,9.741c-0.355,4.429,6.144,7.185,9.034,3.743c2.278-2.712,4.478-5.444,6.717-8.154
	c4.423,5.657,9.178,11.078,14.234,16.204c-3.135,5.652-6.025,11.581-6.643,17.973c-0.591,6.112,8.321,6.536,10.14,1.372
	c1.413-4.008,2.855-7.929,4.395-11.821c2.377,2.131,4.804,4.206,7.293,6.2c7.373,5.906,14.937,11.827,22.858,16.982
	c7.462,4.857,15.628,8.025,23.896,11.2c0.606,0.233,1.213,0.466,1.819,0.701c-2.527,4.781-6.487,11.916-3.374,17.146
	c0.61,1.027,1.857,1.87,3.098,1.777c4.223-0.316,5.982-9.594,7.466-12.878c0.418-0.925,0.836-1.867,1.256-2.815
	c3.907,1.474,7.825,2.901,11.776,4.214c-1.882,7.094-3.076,16.188,2.163,21.084c1.273,1.189,3.231,1.231,4.503,0
	c2.427-2.348,2.752-4.934,3.132-8.242c0.375-3.252,0.724-6.385,1.324-9.536c5.816,1.496,11.735,2.611,17.818,3.126
	c8.337,0.706,16.646,1.986,24.982,2.746c9.074,0.828,18.028,0.424,27.127,0.75c0.075,1.485,0.152,2.968,0.214,4.441
	c0.192,4.559,1.248,22.093,9.963,19.021c1.09-0.385,1.828-1.268,1.862-2.446c0.201-6.848-0.898-13.749-1.271-20.62
	c6.269,0.213,12.535,0.358,18.83,0.409c0.062,0.338,0.12,0.678,0.189,1.014c0.944,4.591,2.239,9.419,4.093,13.728
	c1.862,4.33,4.129,6.348,8.583,7.173c1.338,0.248,3.033-0.608,2.901-2.209c-0.557-6.704-2.743-12.87-4.374-19.369
	c1.33,0.042,2.659,0.068,3.985,0.043c4.487-0.085,8.911-1.196,13.376-1.572c2.343-0.197,4.657-0.496,6.949-0.878
	c0.399,0.619,0.786,1.246,1.203,1.851c3.604,5.25,10.976,14.914,18.237,14.12c2.121-0.232,3.464-1.236,4.225-3.217
	c1.006-2.618-1.571-4.596-3.048-6.332c-2.684-3.153-5.786-6.087-8.434-9.25c11.204-3.267,21.961-8.093,32.705-12.755
	c14.139-6.135,26.386-15.857,38.583-25.151c2.401,3.465,5.387,6.613,8.481,7.089c2.594,0.399,5.608-1.622,4.608-4.608
	c-1.167-3.484-3.051-6.243-5.061-9.033c2.408-2.256,4.721-4.724,6.898-7.246c3.825,3.605,8.592,6.637,12.996,5.406
	c1.029-0.288,2.017-1.166,2.245-2.245c1.135-5.372-3.741-9.109-7.95-12.362c4.831-6.383,9.725-12.801,14.302-19.336
	c1.986-2.837,2.94-5.958,5.139-8.587c2.623-3.136,4.129-7.302,5.774-11c1.79-4.023,3.032-8.3,5.051-12.21
	c1.986-3.846,4.126-7.495,5.594-11.59c1.943-5.422,3.987-10.971,5.764-16.568c2.014,1.606,4.006,3.241,5.966,4.922
	c3.906,3.353,7.737,7.709,13.237,6.937c1.028-0.144,1.967-1.248,2.203-2.203c2.241-9.067-11.969-17.158-18.19-21.528
	c1.976-9.201,2.657-18.376,4.028-27.638c0.113-0.767,0.206-1.529,0.304-2.29c0.276,0.043,0.552,0.087,0.828,0.131
	c3.948,0.622,7.876,1.623,11.777,2.499c2.406,0.54,4.63,0.975,5.661-1.952c2.208-6.271-6.419-9.755-17.325-11.563
	c0.232-4.664,0.288-9.335,0.318-14.128c0.008-1.126,0.073-2.246,0.163-3.363c7.489-0.404,16.937,1.26,23.323-2.948
	C502.175,270.187,502.496,268.851,501.637,268.061z M388.675,57.672c6.899-3.806,13.137-8.993,20.091-12.6
	c8.18-4.242,16.354-8.507,24.313-13.159c6.962-4.067,14.693-6.972,21.472-11.25c0.711-0.448,1.409-0.941,2.088-1.437
	c0.427-0.311,0.82-0.418,1.056-0.498c0.215,0.977,1.103,3.388,1.288,3.836c1.809,4.374,3.429,8.875,4.711,13.425
	c1.112,3.949,2.966,7.623,4.321,11.493c0.848,2.423,1.036,3.241-1.245,4.82c-2.219,1.536-5.707,2.241-8.298,3.009
	c-18.511,5.487-36.445,12.694-54.59,19.239c-6.004,2.166-10.596,6.321-17.267,3.307c-4.039-1.825-7.394-4.516-11.288-6.623
	c-2.115-1.144-4.336-2.107-6.52-3.138C375.416,64.59,382.133,61.282,388.675,57.672z M357.949,75.003
	c2.219-1.336,4.038-3.116,6.278-4.416c2.317,2.285,5.276,3.828,8.145,5.706c3.646,2.386,7.094,6.174,11.234,7.841
	c-0.285,0.2-0.572,0.396-0.839,0.617c-1.436,1.185-2.396,2.622-3.075,4.202c-2.377-2.86-6.963-2.876-10.241-4.662
	c-2.716-1.48-5.727-1.977-8.555-3.172c-2.451-1.036-4.799-2.334-7.169-3.577C354.927,76.418,356.526,75.86,357.949,75.003z
	 M343.743,117.094c2.456-9.363,4.294-18.9,6.688-28.266c0.597-2.34,0.553-5.129,1.223-7.588c3.832,3.344,8,5.127,13.095,7.35
	c4.517,1.971,8.723,4.247,13.661,5.016c-0.548,3.284-0.655,6.754-1.455,9.758c-2.695,10.122-8.22,19.262-12.103,28.9
	c-4.22,10.476-4.504,22.342-6.315,33.368c-3.172,19.309-17.327,35.142-21.396,53.995c-0.064,0.008-0.127,0.017-0.191,0.023
	c-7.973,0.879-16.116,1.789-24.198,2.354c0.717-2.26,1.194-4.653,2.022-6.822c1.731-4.529,3.446-9.151,4.976-13.755
	c3.006-9.043,6.251-18.234,8.809-27.405C333.837,155.096,338.758,136.101,343.743,117.094z M201.464,152.138
	c0.692,8.048,1.964,15.801,3.163,23.779c0.631,4.196,0.427,8.436,1.018,12.644c0.629,4.485,1.762,8.9,2.321,13.393
	c0.494,3.974,1.433,7.879,1.857,11.864c0.214,2.014,0.284,4.135,0.575,6.19c-1.325-0.088-2.646-0.182-3.971-0.269
	c-3.631-0.237-7.334-0.81-11.039-1.568c-1.809-10.898-3.366-21.806-5.194-32.631c-0.115-0.903-0.241-1.808-0.383-2.712
	c-1.225-7.76-2.376-15.544-3.653-23.3c-0.637-3.866-1.066-7.841-1.989-11.648c-0.153-0.631-0.362-1.246-0.592-1.856
	c-0.201-1.366-0.429-2.73-0.721-4.076c2.2,0.749,4.484,1.62,6.707,1.322c3.113-0.418,4.568-2.632,6.769-4.564
	c1.148-1.008,2.445-1.904,3.813-2.704C199.669,141.31,201.037,147.176,201.464,152.138z M300.346,192.929
	c-2.113,0.823-4.267,1.746-6.258,2.828c-0.345,0.187-0.646,0.405-0.931,0.636c-2.241,1.041-4.427,2.107-6.536,3.015
	c-9.647,4.149-18.768,7.977-29.484,5.795c-14.402-2.932-29.519-19.461-44.845-13.106c-0.201-1.066-0.395-2.135-0.562-3.206
	c-0.65-4.192-0.46-8.38-1.011-12.567c-0.065-0.493-0.135-0.982-0.201-1.474c1.809-0.032,3.631-0.264,5.349-0.452
	c2.609-0.287,5.109,0.22,7.727,0.013c2.326-0.185,4.485-0.624,6.838-0.576c10.236,0.209,20.149,1.485,30.4,1.251
	c10.07-0.229,20.404,0.103,30.352,1.409c4.638,0.609,9.295,0.995,13.962,1.248c2.471,0.134,5.103,0.304,7.55,0.661
	c1.758,0.256,3.31,0.833,5.02,1.084c-0.989,3.18-2.01,6.35-3.116,9.499c-0.282,0.799-0.549,1.601-0.815,2.403
	c-0.183-0.094-0.377-0.171-0.586-0.213C308.993,190.332,304.293,191.392,300.346,192.929z M311.88,197.3
	c-0.888,2.794-1.79,5.585-2.818,8.349c-1,2.69-1.907,5.414-2.897,8.107c-0.851,2.318-1.163,5.577-2.427,7.657
	c-0.219,0.361-0.361,0.717-0.466,1.069c-10.695,0.33-21.47-0.019-32.165-0.006c-11.018,0.014-22.029,0.462-33.001-0.451
	c-6.986-0.581-13.976-1.082-20.973-1.561c-1.548-6.535-2.419-13.475-3.339-20.066c-0.195-1.397-0.447-2.786-0.71-4.173
	c2.256,0.237,4.613,0.194,6.753,0.329c5.688,0.359,10.464,2.743,15.429,5.402c8.236,4.411,16.244,8.836,25.656,9.86
	c8.898,0.968,17.452-2.041,25.41-5.712c4.204-1.94,8.535-4.409,12.88-5.918c2.009-0.698,10.03-3.408,11.081-2.855
	C310.778,197.585,311.405,197.565,311.88,197.3z M293.991,167.361c-10.698-0.885-21.406-1.488-32.183-1.084
	c-10.543,0.395-20.812-0.51-31.377-0.353c-4.488,0.066-9.266,0.411-13.686,0.969c-1.748,0.22-3.467,0.827-5.125,1.413
	c-0.715,0.252-1.313,0.569-1.876,0.91c-0.896-6.36-1.819-12.698-2.524-19.113c-0.047-0.425-0.09-0.855-0.135-1.283
	c0.799-0.023,1.555-0.302,2.131-0.87c4.41-0.465,9.303,0.135,13.651,0.117c5.422-0.023,10.843-0.045,16.263-0.074
	c11.2-0.059,22.496,0.367,33.649-0.79c18.114-1.88,36.819-0.935,54.939-0.459c-0.833,3.223-1.713,6.43-2.799,9.606
	c-1.608,4.706-3.051,9.452-4.483,14.202C312.393,167.157,302.56,168.069,293.991,167.361z M167.803,204.691
	c4.48-2.376,9.773-4.297,14.853-4.769c0.121-0.011,0.227-0.043,0.34-0.065c0.726,0.06,1.434,0.18,2.121,0.363
	c0.811,5.39,1.653,10.786,2.631,16.156c-4.539-1.199-9.014-2.564-13.298-3.871c-4.009-1.223-7.86-2.646-11.655-4.283
	C164.549,207.121,166.176,205.554,167.803,204.691z M161.135,203.002c-1.024,1.256-1.467,2.39-1.894,3.615
	c-0.034-0.015-0.069-0.029-0.102-0.046c-2.592-1.223-5.13-2.293-5.941-5.311c-0.35-1.303-0.377-2.39-0.161-3.348
	c2.595-2.285,4.876-4.712,7.851-6.725c6.143-4.158,13.974-8.164,21.261-10.117c0.697,4.131,1.34,8.289,1.967,12.462
	c-4.48-0.372-9.805,1.041-13.36,3.07c-0.406,0.232-0.824,0.476-1.238,0.716c-0.929,0.436-1.845,0.885-2.727,1.355
	C164.598,199.841,162.718,201.061,161.135,203.002z M180.86,173.781c-3.981,0.801-7.595,2.861-11.041,4.955
	c-1.745,1.061-3.545,2.073-5.322,3.12c-3.09,1.609-6.148,3.201-9.12,5.304c-3.303,2.338-7.257,5.064-8.711,9.014
	c-1.441,3.917,0.479,10.023,3.065,13.146c1.66,2.005,4.168,2.741,6.306,4.083c2.372,1.489,4.47,2.794,7.117,3.745
	c6.273,2.256,12.458,4.702,18.872,6.582c12.553,3.679,24.987,5.02,37.922,6.269c27.558,2.66,55.469,2.296,83.209,1.963
	c7.075-0.084,14.244-1.024,21.312-1.563c6.284-0.479,12.656-0.744,18.898-1.595c11.168-1.522,24.452-4.378,34.256-10.164
	c5.888-3.476,10.508-6.078,14.202-12.088c2.845-4.627,5.703-10.881,2.699-16.15c-5.452-9.56-21.016-14.824-31.666-12.288
	c0.972-2.776,1.813-5.604,2.428-8.518c1.023-4.843,1.657-9.778,2.366-14.697c7.874,0.162,15.706,2.182,23.145,4.527
	c8.527,2.688,19.36,6.386,26.349,12.069c14.686,11.944,20.728,35.468,8.292,51.012c-4.261,5.325-9.646,9.367-15.606,12.577
	c-0.814,0.266-1.622,0.525-2.404,0.776c-6.307,2.023-12.136,5.071-18.618,6.632c-6.113,1.473-12.916,2.599-19.167,3.209
	c-5.85,0.572-11.82,0.224-17.66,0.876c-12.527,1.397-24.895-0.045-37.427-0.045c-13.109,0-25.848,0.064-38.853,1.755
	c-11.092,1.442-22.293,2.981-33.552,3.36c-5.901,0.199-11.53,0.052-17.418,0.657c-6.978,0.718-13.958-0.131-20.877-0.687
	c-4.825-0.387-9.816-0.475-14.711-0.567c-1.549-0.334-3.106-0.605-4.678-0.722c-5.576-0.415-10.922-0.949-16.437-1.971
	c-4.887-0.906-9.585-2.27-14.418-3.267c-0.86-0.177-1.725-0.33-2.592-0.474c-7.98-2.103-15.914-4.471-23.928-6.341
	c-3.219-0.752-6.155-2.022-9.196-3.364c-2.131-0.941-4.36-1.599-6.526-2.423c-0.541-0.331-1.071-0.668-1.587-1.01
	c-6.046-4.027-11.43-8.625-16.448-13.787c-1.38-1.775-2.811-3.639-3.469-5.685c-1.115-3.469-0.898-8.192-0.265-11.711
	c0.079-0.441,0.181-0.876,0.296-1.311c1.814-3.957,4.688-7.704,7.516-10.876c6.441-7.223,15.641-11.734,24.098-16.229
	c5.397-2.869,10.339-6.362,16.114-8.513c5.295-1.973,10.857-3.101,16.277-4.659c4.852-1.394,9.628-2.752,14.514-4
	c2.024-0.517,4.352-0.694,6.293-1.336c0.372-0.124,0.699-0.248,1.013-0.373c0.591-0.116,1.168-0.261,1.731-0.434
	C178.214,159.686,179.573,166.805,180.86,173.781z M365.089,206.386c1.952,1.297,2.932,3.529,4.29,5.303
	c-0.661,0.294-1.318,0.592-1.994,0.866c-7.527,3.05-15.379,4.929-23.346,6.158c2.369-6.401,5.49-12.513,8.65-18.609
	C356.935,201.842,361.352,203.903,365.089,206.386z M354.53,196.543c2.106-4.08,4.169-8.178,5.973-12.376
	c0.171,0.08,0.354,0.149,0.555,0.201c4.661,1.213,9.369,1.49,13.992,3.047c3.51,1.181,9.754,3.904,10.997,7.941
	c0.894,2.903-4.976,10.029-7.188,11.351c-1.203,0.72-2.414,1.405-3.633,2.074c-1.234-1.269-1.808-3.046-2.944-4.42
	c-1.696-2.051-4.129-3.462-6.465-4.667C362.321,197.89,358.44,196.507,354.53,196.543z M281.177,126.072
	c8.87,1.313,18.005,1.809,26.96,1.753c8.151-0.051,16.627,2.059,24.736,1.304c-1.125,3.173-2.248,6.344-3.113,9.629
	c-0.242,0.918-0.478,1.837-0.711,2.755c-4.985-2.408-11.725-1.599-17.133-1.657c-6.302-0.068-12.602-0.14-18.905-0.153
	c-5.61-0.011-11.458-0.561-17.021,0.18c-12.232,1.627-24.533,1.158-36.857,1.117c-5.75-0.019-11.502-0.046-17.252-0.07
	c-5.159-0.022-10.609-0.618-15.722,0.118c-0.383-2.448-0.913-4.857-1.738-7.157c0.749-0.313,1.499-0.608,2.239-0.873
	c6.792-2.419,14.148-3.959,21.335-3.634c5.851,0.265,8.269-1.013,11.731-4.997c0.651,0,1.324-0.01,2.045-0.008
	c3.999,0.009,7.72,0.214,11.743-0.023C262.594,123.82,272.213,124.744,281.177,126.072z M182.482,33.635
	c5.196,2.037,10.224,5.445,14.984,8.41c8.518,5.307,16.916,10.141,25.249,15.746c9.215,6.197,19.219,11.344,28.577,17.318
	c4.754,3.036,9.506,6.251,14.153,9.456c2.549,1.758,5.311,3.177,7.833,4.955c0.811,0.573,1.794,1.376,2.53,2.046
	c-0.068-0.051,0.187,0.217,0.569,0.62c-2.015,0.801-3.899,1.87-5.892,2.647c-5.98,2.332-12.336,3.605-18.339,5.976
	c-7.743,3.057-16.672,8.061-21.81,15.192c-6.856-13.373-15.192-25.815-21.705-39.48c-2.024-4.247-5.284-7.679-7.599-11.763
	c-2.288-4.036-4.873-7.743-7.58-11.512c-3.148-4.383-5.548-9.309-8.371-13.911c-0.936-1.526-1.795-3.144-2.918-4.544
	c-0.636-0.794-1.436-1.525-2.197-2.289C180.841,32.89,181.693,33.326,182.482,33.635z M185.626,50.49
	c2.704,4.985,6.322,9.348,9.13,14.267c2.544,4.459,5.785,8.546,8.202,13.037c4.82,8.953,9.422,18.065,14.244,26.991
	c2.084,3.86,4.513,7.501,6.469,11.46c0.641,1.297,1.082,2.782,1.678,4.134c-0.415-0.027-0.829-0.047-1.242-0.043
	c-7.353,0.062-15.671,2.266-22.453,5.032c-2.883,1.176-5.774,2.586-8.35,4.341c-0.595,0.406-1.138,0.845-1.66,1.302
	c-3.042-15.921-5.673-32.043-7.382-48.188c-0.927-8.755-2.061-17.367-3.457-26.053c-0.977-6.078-1.239-12.193-1.712-18.291
	C181.339,42.438,183.456,46.493,185.626,50.49z M179.009,87.679c1.05,10.084,2.253,20.125,4.145,30.098
	c0.935,4.934,1.604,10.041,2.944,14.881c0.12,0.431,0.209,0.864,0.285,1.294c-0.017-0.003-0.031-0.006-0.047-0.009
	c-3.159-0.49-6.238-1.474-9.317-2.281c-3.374-0.885-7.005-1.064-10.453-1.664c-6.366-1.107-13.63,0.122-19.767,1.986
	c-4.527,1.376-9.856,3.211-14.002,6.079c0.577-1.121,1.14-2.22,1.524-3.225c1.901-4.966,3.428-10.033,5.371-14.997
	c3.91-9.992,8.506-20.262,11.369-30.586c1.578-5.688,4.518-11.168,6.958-16.539c2.374-5.227,4.475-10.694,7.402-15.629
	c2.845-4.795,4.87-9.934,7.458-14.86c0.614-1.169,1.237-2.332,1.833-3.51C174.01,55.031,177.324,71.488,179.009,87.679z
	 M167.3,8.417c0.713-0.597,3.489-0.989,4.15-0.949c2.442,0.146,2.073,0.546,2.785,3.163c0.661,2.425,0.843,4.904,1.31,7.367
	c0.27,1.423,1.014,2.92,1.479,4.367c-0.631-0.014-1.246,0.011-1.837,0.089c-1.571,0.208-2.901,0.743-4.087,1.485
	c-0.009-0.05-0.019-0.098-0.028-0.148c-0.513-2.803-0.678-5.864-1.546-8.594c-0.638-2.006-1.773-3.79-2.163-5.876
	c-0.096-0.515-0.296-0.624-0.439-0.62C167.009,8.646,167.128,8.561,167.3,8.417z M94.721,132.45
	c-1.083,0.177-2.155,0.423-3.223,0.699c1.234-1.582,2.246-3.222,3.436-4.881c3.279-4.572,7.023-8.822,10.201-13.478
	c3.157-4.624,5.338-9.537,8.908-13.82c2.894-3.471,5.497-7.174,8.294-10.734c1.28-1.334,2.562-2.665,3.842-3.995
	c8.051-8.358,16.5-16.388,24.233-25.059c3.213-3.602,6.439-7.167,9.629-10.795c3.059-3.48,5.614-7.439,8.564-11
	c-0.408,0.903-0.817,1.808-1.245,2.698c-2.566,5.335-5.283,10.523-7.936,15.804c-5.016,9.982-9.909,20.926-13.065,31.626
	c-1.624,5.511-3.957,11.368-6.265,16.618c-2.057,4.679-3.399,9.507-5.227,14.269c-1.908,4.972-3.462,10.205-4.633,15.407
	c-0.132,0.589-0.24,1.227-0.316,1.887c-6.736-3.106-14.463-4.219-21.714-5.36C103.679,131.624,99.246,131.708,94.721,132.45z
	 M465.407,264.887c-6.094,0.727-12.051,1.888-17.586,5.002c-2.674,1.504-0.748,5.451,1.741,5.006
	c5.043,0.288,10.253,0.173,15.435-0.136c-0.046,1.66-0.078,3.321-0.071,4.985c0.014,3.429-0.108,6.764-0.33,10.076
	c-10.07-0.615-19.398-0.25-22.108,0.334c-3.786,0.815-2.34,6.744,0.971,6.323c6.704,1.312,13.419,2.464,20.151,3.557
	c-0.185,1.512-0.381,3.029-0.595,4.566c-0.93,6.667-1.434,13.28-2.589,19.868c-0.889-0.512-1.777-1.025-2.685-1.517
	c-2.29-1.242-4.595-2.481-6.916-3.664c-0.969-0.494-2.104-1.181-3.188-1.467c-1.053-0.279-1.568-1.019-1.378-0.074
	c-0.762-3.8-6.199-2.629-6.429,0.87c-0.257,3.894,3.592,5.936,6.256,8.158c3.718,3.104,7.753,5.866,11.717,8.683
	c-4.301,14.848-10.652,28.918-16.935,42.988c-1.406,3.149-2.664,6.475-4.864,9.12c-2.352,2.825-3.224,5.996-5.222,8.997
	c-4.05,6.088-8.751,11.909-13.201,17.776c-0.139-0.126-0.273-0.255-0.411-0.381c-1.693-1.521-3.684-4.187-4.69-6.262
	c-1.66-3.425-6.473-0.89-5.819,2.453c0.532,2.726,0.828,5.986,2.252,8.434c0.72,1.237,1.589,2.443,2.501,3.625
	c-1.673,1.95-3.424,3.852-5.251,5.695c-0.088-0.166-0.168-0.334-0.259-0.498c-0.996-1.822-3.522-5.776-3.544-7.945
	c-0.046-4.52-6.96-4.525-7.023,0c-0.065,4.736,1.696,10.278,3.687,15.077c-5.562,4.787-11.52,9.117-17.541,12.916
	c-6.823,4.304-13.33,8.917-20.79,12.135c-7.513,3.241-15.004,6.316-22.665,9.094c-4.069,1.475-8.092,2.796-12.183,3.851
	c-0.727-1.084-1.473-2.157-2.256-3.201c-3.425-4.566-7.223-8.042-11.578-11.644c-2.708-2.241-7.825,0.787-5.327,4.111
	c3.013,4.009,5.499,8.396,7.925,12.824c-0.545,0.061-1.085,0.134-1.637,0.183c-3.613,0.322-7.149,1.282-10.744,1.541
	c-2.418,0.174-4.871,0.078-7.323-0.037c-1.011-6.307-2.079-12.591-4.54-18.569c-1.232-2.992-5.377-3.368-6.484,0
	c-1.571,4.776-0.178,10.387,0.321,15.283c0.106,1.042,0.2,2.089,0.292,3.136c-6.075,0.039-12.142,0.078-18.209-0.127
	c-0.409-4.646-0.852-9.294-1.129-13.95c0.683-1.627,0.074-3.901-1.893-4.197c-0.183-0.028-0.368-0.056-0.552-0.083
	c-1.531-0.232-2.766,0.182-3.651,1.485c-2.875,4.238-2.782,9.82-2.976,14.767c-0.02,0.515-0.028,1.032-0.038,1.549
	c-7.281-0.047-14.635,0.842-21.834,0.132c-7.894-0.778-15.821-1.332-23.693-2.386c-3.904-0.524-7.86-0.531-11.75-1.153
	c-3.204-0.511-6.325-1.419-9.472-2.196c0.245-1.046,0.479-2.095,0.69-3.155c0.594-2.971,0.721-7.725,2.22-10.369
	c2.352-4.15-3.511-9.122-6.823-5.265c-3.596,4.188-5.341,10.32-6.895,16.105c-3.377-1.125-6.666-2.499-9.979-3.857
	c1.981-3.82,4.209-7.469,6.941-10.573c2.67-3.033-1.478-7.264-4.461-4.461c-3.908,3.673-7.115,7.777-9.962,12.155
	c-7.173-2.54-14.481-4.964-21.137-8.698c-12.746-7.15-25.187-16.686-35.942-27.048c1.191-2.498,2.445-4.92,3.818-7.335
	c1.26-2.218,1.648-5.488,3.139-7.395c2.465-3.157-1.405-7.357-4.503-4.503c-2.469,2.275-3.924,5.354-6.029,7.953
	c-1.168,1.442-2.196,2.93-3.159,4.46c-4.27-4.539-8.932-9.272-12.897-14.279c4.457-4.848,8.686-9.734,12.684-14.949
	c1.032-1.345-0.135-3.182-1.476-3.628c-5.82-1.936-12.759,5.568-17.165,10.218c-3.427-4.857-7.069-9.548-10.409-14.514
	c4.795-4.622,9.732-9.201,14.702-13.518c2.813-2.443-0.806-6.944-3.93-5.094c-5.424,3.211-10.669,6.588-15.66,10.349
	c-2.39-4.648-4.392-9.545-6.102-14.569c3.745-2.777,7.517-5.281,11.416-7.89c1.336-0.894,2.762-1.695,4.2-2.488
	c1.521-0.606,3.052-1.159,4.601-1.571c1.912-0.507,2.86-1.856,3.071-3.339c1.348-1.422,0.255-3.555-1.373-4.104
	c-0.957-0.941-2.344-1.455-4.038-1.051c-3.553,0.846-7.067,2.777-10.401,4.278c-3.823,1.72-7.371,3.017-10.664,5.474
	c-1.652-6.258-2.996-12.564-4.187-18.688c-3.195-16.434-6.893-33.147-7.823-49.896c-0.153-2.744-0.278-5.517-0.364-8.306
	c6.453-0.19,14.528-0.608,17.772-6.085c0.938-1.583,0.25-3.355-1.143-4.357c-3.322-2.391-7.476-1.697-11.34-1.267
	c-1.791,0.199-3.586,0.424-5.38,0.657c0.076-4.88,0.318-9.764,0.825-14.595c2.172,0.629,4.338,1.288,6.508,2
	c3.39,1.11,6.306-2.994,4.559-5.931c-2.168-3.646-5.743-5.162-9.616-6.038c0.368-1.938,0.785-3.86,1.261-5.762
	c4.163-16.593,9.759-34.01,21.335-46.985c5.605-6.284,12.728-10.676,19.591-15.369c3.06-2.093,5.578-4.259,8.944-5.907
	c3.93-1.924,7.595-4.437,11.444-6.537c3.738-2.041,7.385-3.792,11.304-5.459c2.749-1.168,5.792-3.499,8.802-4.325
	c1.414,0.808,2.778,1.701,4.075,2.692c1.369,1.047,3.787,0.554,4.907-0.633c3.881-4.116,11.461-6.311,16.884-7.504
	c3.039-0.669,6.887-1.317,10.024-1.348c3.153-0.031,6.452,1.057,9.591,1.418c1.764,0.203,3.456,0.636,5.149,1.113
	c-0.056,2.241-0.022,4.489,0.102,6.741c-3.397-0.153-7.564,1.236-10.508,1.815c-4.931,0.971-10.115,1.925-14.865,3.656
	c-2.041,0.744-4.02,1.583-5.983,2.459c-6.555,1.839-13.021,3.918-19.067,7.173c-4.219,2.271-8.499,4.573-12.606,7.016
	c-4.138,2.461-9.084,4.36-12.861,7.273c-7.228,5.573-15.415,13.767-18.337,22.675c-2.103,6.411-0.986,13.66,2.885,19.123
	c2.511,5.502,6.641,10.308,11.526,14.559c4.469,3.888,9.628,5.902,15.014,8.042c3.015,1.197,5.769,3.111,8.772,4.325
	c2.722,1.101,5.936,1.764,8.79,2.521c14.688,3.892,29.231,7.624,44.078,10.75c6.503,1.369,13.007,1.629,19.59,2.219
	c1.187,0.107,2.378,0.122,3.571,0.116c2.457,0.52,4.929,0.957,7.373,1.237c10.521,1.205,22.309,0.884,32.755-0.689
	c1.059-0.159,2.121-0.29,3.183-0.409c5.187,0.031,10.602-0.219,15.632-0.894c0.401-0.053,0.8-0.096,1.201-0.147
	c4.759-0.246,9.502-0.609,14.188-1.506c0.586-0.112,1.186-0.201,1.777-0.304c0.736-0.09,1.471-0.171,2.208-0.269
	c3.264-0.436,6.553-0.894,9.851-1.264c5.429-0.456,10.912-0.651,16.288-0.692c2.487,0.015,4.972,0.032,7.457,0.033
	c10.344,0.173,20.604,0.913,30.937,1.595c11.083,0.731,22.508-0.321,33.435-2.493c4.056-0.806,8.171-1.74,12.262-2.818
	c4.188-0.72,8.34-1.645,12.264-3.344c0.96-0.417,1.864-0.913,2.741-1.445c1.121-0.432,2.236-0.875,3.332-1.338
	c10.137-4.285,18.783-8.67,26.082-17.1c15.437-17.829,10.876-42.689-3.948-59.23c-7.274-8.116-18.293-11.683-28.143-15.675
	c-9.095-3.688-19.098-6.335-28.984-6.699c0.601-3.204,1.336-6.378,2.344-9.492c0.199-0.613,0.418-1.217,0.65-1.815
	c2.713,0.475,5.368,0.483,8.103,0.922c4.371,0.703,8.59,2.754,12.889,3.831c7.546,1.889,13.602,5.856,20.527,9.121
	c7.416,3.497,14.331,8.895,21.095,13.504c6.704,4.568,12.639,10.062,17.843,16.274c5.96,7.116,8.158,14.537,9.605,23.582
	c1.36,8.503,1.68,17.363,2.539,25.958c0.791,7.927,1.267,16.067,1.275,24.043C465.761,257.086,465.593,260.989,465.407,264.887z"/>
<path d="M167.36,340.419c2.631-1.301,5.902-2.704,8.243-4.47c3.274-2.467,0.465-7.795-3.304-5.652
	c-3.655,2.079-8.419,3.057-12.327,4.711c-3.804,1.61-7.508,3.576-11.092,5.625c-3.629,2.076-13.532,7.788-11.568,13.103
	c0.252,0.682,0.983,1.061,1.661,0.676c2.325-1.321,5.363-1.227,7.839-2.503c3.587-1.85,6.978-4.13,10.485-6.127
	C160.612,343.896,163.943,342.11,167.36,340.419z"/>
<path d="M182.466,351.654c1.526-1.531,2.857-3.196,2.66-5.471c-0.166-1.901-2.722-3.55-4.216-1.746
	c-1.335,1.613-4.753,2.206-6.578,3.517c-3.724,2.673-6.819,6.246-9.856,9.63c-4.373,4.875-11.936,10.99-11.143,18.277
	c0.452,4.152,5.062,5.323,7.557,2.047c4.834-6.349,9.577-12.648,14.713-18.784C177.805,356.492,180.064,354.065,182.466,351.654z"/>
<path d="M188.789,358.331c0.172-0.831-1.569,2.138-1.73,2.41c-1.097,1.866-2.067,3.802-3.203,5.653
	c-2.089,3.408-3.713,6.816-5.106,10.576c-1.992,5.381-8.391,17.588-2.656,22.203c1.034,0.832,2.564,1.316,3.786,0.488
	c3.233-2.187,4.14-5.991,5.204-9.573c1.21-4.073,2.577-8.136,3.967-12.154c1.987-5.744,7.673-13.33,6.336-19.606
	C194.694,355.08,189.466,355.055,188.789,358.331z"/>
<path d="M312.033,384.052c-0.325-2.972-1.33-5.255-2.011-8.111c-0.741-3.112-5.001-2.141-5.26,0.712
	c-0.617,6.791-1.769,14.002-1.483,20.849c0.227,5.436,0.722,13.348,6.433,15.883c2.004,0.889,5.09,0.383,5.554-2.26
	c0.975-5.552-1.893-11.59-2.409-17.204C312.555,390.635,312.392,387.332,312.033,384.052z"/>
<path d="M334.014,398.728c-1.266-1.701-2-3.797-2.792-5.744c-2.124-5.214-5.127-10.94-6.462-16.381
	c-0.836-3.406-5.405-2.311-5.729,0.776c-0.783,7.49,3.842,37.849,17.291,30.763c1.794-0.945,2.406-3.515,1.367-5.211
	C336.682,401.283,335.157,400.262,334.014,398.728z"/>
<path d="M360.62,384.973c-3.62-2.316-5.909-5.673-8.95-8.581c-1.318-1.261-2.953-2.013-4.338-3.15
	c-0.693-0.568-3.958-2.75-4.186-3.437c-1.583-4.776-9.172-2.73-7.576,2.088c0.987,2.976,3.324,6.404,5.387,8.764
	c2.595,2.967,4.957,6.099,7.601,9.06c3.898,4.366,13.064,10.813,18.951,5.906C372.759,391.249,363.545,386.844,360.62,384.973z"/>
<path d="M389.924,318.955c-3.265-1.245-7.332-0.641-10.782-0.995c-4.293-0.442-8.594-0.697-12.771-1.861
	c-4.289-1.196-5.671,4.884-1.787,6.484c5.312,2.19,10.825,4.386,16.62,4.985c4.213,0.436,10.846-1.251,10.118-6.776
	C391.201,319.869,390.799,319.288,389.924,318.955z"/>
<path d="M405.825,304.277c-4.101-3.121-9.884-4.273-14.877-5.167c-4.871-0.873-10.948-0.082-15.187-2.782
	c-2.93-1.866-6.62,2.703-3.786,4.907c4.735,3.683,10.015,4.645,15.716,6.195c5.811,1.58,12.602,4.715,18.135,0.855
	C407.359,307.215,407.254,305.365,405.825,304.277z"/>
<g>
</g>
<g>
</g>
<g>
</g>
<g>
</g>
<g>
</g>
<g>
</g>
<g>
</g>
<g>
</g>
<g>
</g>
<g>
</g>
<g>
</g>
<g>
</g>
<g>
</g>
<g>
</g>
<g>
</g>
</svg>
