<?xml version="1.0" encoding="iso-8859-1"?>
<!-- Generator: Adobe Illustrator 19.0.0, SVG Export Plug-In . SVG Version: 6.00 Build 0)  -->
<svg version="1.1" id="Layer_1" xmlns="http://www.w3.org/2000/svg" xmlns:xlink="http://www.w3.org/1999/xlink" x="0px" y="0px"
	 viewBox="0 0 512 512" style="enable-background:new 0 0 512 512;" xml:space="preserve">
<path style="fill:#FFC94E;" d="M422.428,215.348c-0.931-7.319-3.235-14.284-5.393-21.309c-0.064-0.465-0.121-0.932-0.191-1.396
	c-0.963-6.462-3.023-12.594-4.966-18.799c-1.021-3.261-1.854-6.536-2.972-9.67c-1.02-3.441-2.485-7.188-5.555-9.825
	c-3.522-3.026-7.336-4.195-10.92-4.043c-5.569-10.101-13.554-18.873-22.209-26.995c-7.4-6.943-14.36-13.546-23.46-18.266
	c-4.612-2.391-8.408-4.131-11.222-5.594c-5.107-2.656-10.564-4.088-15.858-6.243c-7.694-3.133-16.028-7.539-24.916-9.195
	c-10.052-1.873-21.48-3.359-31.72-2.538c-5.307,0.427-10.309,1.513-16.255,1.308c-6.804-0.234-12.75-0.462-19.564,0.69
	c-5.489,0.927-10.546,3.187-15.753,5.067c-0.667,0.241-2.949,1-4.067,1.417c-0.175,0.03-0.328,0.06-0.4,0.079
	c-1.52,0.373-2.899,0.996-4.157,1.793c-0.94-0.084-1.913-0.11-2.929-0.06c-6.04,0.305-11.114,2.529-16.211,5.572
	c-6.849,4.088-13.224,9.068-19.255,14.29c-0.794,0.687-1.561,1.407-2.313,2.144c-0.994-0.005-2.007,0.088-3.029,0.315
	c-7.256,1.615-14.108,8.08-19.33,13.018c-5.645,5.338-12.147,9.619-16.669,16.447c-0.212,0.32-1.789,2.832-0.766,1.266
	c1.41-1.299,0.817-0.462-1.778,2.511c-0.72,1.104-1.301,2.276-1.744,3.515c-1.392,2.625-3.374,6.459-4.246,8.4
	c-0.926,2.063-2.254,4.313-2.672,6.553c-0.072,0.387-0.107,0.676-0.118,0.894c-0.144,0.24-0.296,0.497-0.46,0.777
	c-1.774,3.033-2.851,7.628-3.724,11.033c-3.97,15.505-9.026,31.734-9.086,47.828c-0.043,11.75-1.603,25.728,2.781,36.901
	c-0.73,5.789-0.324,11.73,0.989,17.396c1.953,8.43,3.8,16.69,6.457,24.94c5.086,15.798,13.028,31.207,21.154,45.672
	c4.398,7.827,10.907,15.46,17.921,21.077c4.265,3.415,5.299,4.223,9.746,7.515c-2.597-1.922,3.607,2.755,4.408,3.34
	c2.074,1.516,4.185,2.946,6.391,4.265c7.482,4.47,15.531,8.196,23.304,12.135c4.982,2.525,11.569,5.001,17.937,5.389
	c0.362,0.276,0.726,0.546,1.113,0.771c-0.112-0.065,4.363,2.348,2.315,0.987c3.037,2.021,5.61,4.209,9.3,5.281
	c6.339,1.84,14.449,3.548,21.42,2.611c6.506-0.875,12.939-2.254,19.354-3.742c4.689,0.475,9.591,0.224,13.854,0.014
	c7.815-0.384,15.63-2.536,23.256-4.175c12.92-2.775,32.24-8.368,38.89-20.944c5.042-3.014,9.75-6.472,14.308-10.358
	c2.353-2.007,4.587-4.681,6.343-7.679c3.137-0.937,5.906-2.644,8.917-4.248c6.837-3.639,13.469-8.636,18.652-14.464
	c10.918-12.276,18.395-26.709,22.722-42.5c2.325-8.485,3.357-17.305,3.851-26.173c1.741-3.324,2.955-6.904,3.616-10.182
	C421.15,252.166,424.76,233.669,422.428,215.348z"/>
<path style="fill:#FFFFFF;" d="M285.664,245.199c-0.003-0.001-0.005-0.004-0.008-0.005c-0.189-0.307-0.381-0.61-0.594-0.897
	c-0.349-0.589-0.805-1.1-1.349-1.485c-0.518-0.475-1.066-0.908-1.674-1.232c-4.545-2.427-9.483-0.544-14.185-0.509
	c-11.061,0.083-22.011-3.38-32.68,1.363c-3.57,1.588-5.7,4.418-4.53,8.378c0.224,0.754,0.472,1.534,0.734,2.322
	c1.297,4.961,2.901,10.181,5.657,14.368c2.329,3.54,6.031,10.14,11.099,9.792c0.005,0,0.009-0.001,0.014-0.001
	c1.401,0.582,2.828,0.993,4.185,1.457c0.921,0.74,1.895,1.421,2.883,2.032c6.147,3.794,12.792,2.281,18.145-2.136
	c2.323-1.916,4.906-4.102,7.14-6.571c1.544-1.281,2.908-2.842,3.94-4.481C287.812,262.232,291.434,250.298,285.664,245.199z"/>
<path d="M396.994,339.937c4.617-8.023,10.078-15.552,12.844-24.396c2.734-8.745,6.849-17.219,9.055-26.269
	c2.506-10.28,5.509-19.962,6.497-30.561c0.432-4.633,1.303-9.255,1.398-13.918c0.109-5.352,0.786-10.715,0.735-16.047
	c-0.1-10.572-1.093-20.954-2.637-31.426c-1.513-10.268-5.368-19.456-9.499-28.903c-3.877-8.869-10.099-17.521-16.241-25.029
	c-6.059-7.406-11.758-14.847-18.62-21.559c-6.738-6.59-13.685-14.221-21.872-19.03c-8.604-5.055-18.168-8.94-27.494-12.528
	c-9.835-3.783-20.369-8.157-30.798-9.899c-10.176-1.699-20.44-4.302-30.825-4.31c-9.586-0.008-19.156,0.316-28.686,0.898
	c-9.858,0.602-19.686,3.828-29.234,6.176c-9.626,2.367-19.156,5.962-28.319,9.784c-4.02,1.676-7.467,3.677-11.247,5.755
	c-1.762,0.968-3.747,1.252-5.522,2.173c-2.092,1.085-3.786,2.83-5.525,4.383c-1.057,0.945-2.148,1.853-3.246,2.752
	c-0.596,0.368-1.195,0.733-1.788,1.106c-3.82,2.408-7.728,4.624-11.334,7.359c-3.781,2.866-6.788,6.462-10.428,9.48
	c-7.917,6.564-13.987,14.932-19.49,23.592c-2.343,3.689-4.2,7.568-6.31,11.366c-2.549,4.586-3.33,9.449-5.084,14.33
	c-3.684,10.247-6.701,20.29-8.927,30.966c-9.017,43.245-3.733,87.739,14.061,127.994c2.024,4.58,4.76,8.601,7.553,12.735
	c2.788,4.126,5.119,8.829,8.338,12.63c1.348,1.593,2.54,2.602,3.528,4.377c1.063,1.911,2.036,3.54,3.606,5.112
	c3.17,3.173,6.689,6.152,10.014,9.175c3.174,2.886,5.909,6.186,9.466,8.643c4.285,2.958,8.668,5.864,13.081,8.624
	c7.672,4.797,16.028,9.854,24.49,13.164c4.385,1.716,8.317,3.936,12.918,5.158c5.87,1.558,11.763,3.481,17.735,4.604
	c4.643,0.874,9.643,1.016,14.354,1.327c5.103,0.338,10.071,0.883,15.205,0.772c10.386-0.224,20.585-0.088,30.927-1.143
	c10.824-1.104,21.343-4.411,31.682-7.6c8.612-2.656,18.073-6.303,25.528-11.432c3.331-2.292,7.406-3.858,10.363-6.586
	c3.781-3.489,8.01-6.453,11.654-10.113c3.453-3.47,6.661-7.129,10.377-10.332c4.07-3.508,6.707-7.55,10.107-11.647
	C385.313,354.494,392.324,348.052,396.994,339.937z M370.459,352.721c-2.691,3.104-4.666,6.764-7.688,9.572
	c-3.481,3.236-6.966,6.31-10.25,9.767c-3.269,3.441-6.834,6.047-10.428,9.083c-1.513,1.278-2.689,2.947-4.351,4.039
	c-1.883,1.237-4.002,2.045-5.892,3.361c-7.092,4.934-15.583,8.591-23.83,11.127c-9.288,2.858-18.666,5.936-28.351,7.193
	c-18.551,2.408-38.655,2.026-57.186-0.434c-4.684-0.621-9.454-2.384-14.017-3.594c-4.836-1.283-8.785-3.127-13.356-4.992
	c-8.297-3.387-16.502-7.769-24.086-12.552c-3.722-2.348-7.281-4.916-10.982-7.294c-3.562-2.287-6.17-5.09-9.267-7.939
	c-2.952-2.714-5.794-5.521-8.825-8.137c-3.001-2.59-4.515-6.16-7.127-9.158c-2.977-3.416-5.164-7.48-7.715-11.254
	c-2.78-4.111-5.669-8.107-7.713-12.652c-3.745-8.331-7.229-17.421-9.587-26.247c-5.253-19.655-8.175-40.068-6.814-60.389
	c0.72-10.751,0.953-21.122,3.046-31.751c1.972-10.012,4.356-19.697,7.855-29.286c1.52-4.166,2.11-8.922,3.983-12.891
	c1.825-3.863,3.928-7.771,6.134-11.44c5.084-8.455,10.791-16.402,18.333-22.786c3.294-2.788,5.953-6.193,9.373-8.834
	c3.593-2.775,7.634-4.981,11.432-7.458c7.978-5.203,16.267-9.359,24.805-13.486c6.528-3.157,13.006-6.142,19.785-8.616
	c1.703-0.49,3.406-0.977,5.109-1.44c8.842-2.409,18.86-4.99,28.003-5.475c8.931-0.475,17.888-0.512,26.868-0.63
	c9.711-0.128,18.97,2.375,28.477,3.852c9.798,1.521,19.673,5.47,28.922,8.968c8.723,3.298,17.331,7.013,25.471,11.494
	c7.87,4.331,14.215,11.186,20.672,17.389c6.44,6.186,11.433,13.122,17.191,19.865c12.026,14.08,21.631,31.394,24.481,49.869
	c2.897,18.78,2.621,37.565,0.452,56.379c-2.118,18.368-7.431,36.704-14.731,53.677c-0.772,1.796-0.823,3.649-1.528,5.431
	c-0.719,1.817-2.08,3.556-3.026,5.29c-2.212,4.054-4.83,7.74-7.07,11.748C382.699,339.83,376.237,346.059,370.459,352.721z"/>
<path d="M340.096,78.457c5.597-6.388,9.459-14.075,14.05-21.216c2.252-3.501,4.731-6.779,7.193-10.126
	c2.23-3.032,5.164-6.243,3.701-10.236c-0.701-1.914-2.593-3.985-4.892-3.724c-4.441,0.503-5.686,3.015-7.983,6.421
	c-2.67,3.957-5.509,7.745-7.982,11.842c-2.516,4.168-5.283,8.375-7.285,12.813c-1.579,3.501-3.903,7.564-3.437,11.479
	C333.819,78.713,337.637,81.264,340.096,78.457z"/>
<path d="M180.983,34.711c1.703,6.073,2.713,12.285,4.377,18.361c1.287,4.695,2.106,9.312,5.464,12.93
	c0.926,0.998,2.442,1.327,3.728,0.986c0.177-0.047,0.353-0.094,0.53-0.141c2.104-0.559,2.795-2.391,2.399-4.09
	c0.542-4.007,0.086-7.656-0.603-11.778c-1.045-6.235-1.91-12.479-3.382-18.629c-1.2-5.012-2.813-9.377-4.775-14.122
	c-1.002-2.423-1.773-4.937-2.776-7.362c-0.864-2.088-2.412-4.152-2.96-6.304c-1.772-6.951-12.925-5.624-12.646,1.712
	c0.179,4.699,3.19,8.535,4.815,12.869C177.127,24.41,179.46,29.282,180.983,34.711z"/>
<path d="M39.965,150.659c4.85,2.929,10.055,5.26,14.884,8.113c1.826,1.08,3.273,2.581,5.197,3.541
	c2.385,1.189,4.929,2.164,7.355,3.277c4.077,1.868,8.908,4.937,13.48,3.529c2.585-0.795,3.319-3.368,2.305-5.666
	c-3.46-7.839-13.63-9.77-19.744-14.676c-3.456-2.772-7.921-4.363-11.697-6.726c-2.231-1.396-4.379-2.913-6.631-4.277
	c-1.184-0.697-2.375-1.381-3.575-2.049c-0.417-0.274-0.723-0.466-0.936-0.589c-4.435-5.191-13.81-1.546-11.827,5.859
	C30.238,146.444,35.569,148.004,39.965,150.659z"/>
<path d="M69.986,334.066c2.513-1.072,5.048-1.69,7.3-3.311c6.619-4.765,0.178-15.864-6.438-11.015
	c-3.55,2.601-8.521,4.158-12.47,6.285c-1.026,0.552-2.069,1.068-3.12,1.567c-3.17,1.185-6.35,2.399-9.3,3.855
	c-4.993,2.464-9.302,4.773-14.651,6.463c-4.891,1.546-10.527,3.743-14.897,6.416c-5.796,3.545-2.064,12.883,4.661,11.057
	c4.69-1.274,9.666-3.167,14.138-5.069c4.614-1.962,9.344-3.634,13.836-5.932c4.625-2.367,9.38-4.446,14.095-6.651
	C65.484,336.635,67.603,335.082,69.986,334.066z"/>
<path d="M149.825,416.93c-2.328,3.437-3.634,7.277-6.224,10.633c-2.902,3.759-5.741,8.672-7.468,13.121
	c-0.556,1.433-1.113,2.87-1.671,4.312c-2.149,4.664-4.328,9.313-6.459,13.972c-0.994,2.173-1.645,4.46-2.658,6.609
	c-0.993,2.106-2.057,3.852-1.835,6.278c0.474,5.165,7.747,8.286,10.581,2.866c4.582-8.762,8.997-18.304,12.252-27.642
	c1.585-4.545,4.266-9.088,7.143-12.925c2.629-3.507,4.247-7.643,6.843-11.082C164.973,416.914,154.259,410.384,149.825,416.93z"/>
<path d="M493.932,137.108c-10.564,0.964-21.365,4.307-31.385,7.675c-9.36,3.146-17.426,9.38-26.744,12.463
	c-2.256,0.747-4.21,2.861-4.096,5.38l0.027,0.602c0.196,4.322,5.788,7.079,8.892,4.371c0.942-0.229,1.891-0.507,2.823-0.831
	c1.628-0.362,3.194-0.883,4.429-1.283c5.835-1.892,11.453-4.412,17.196-6.555c10.517-3.924,21.766-5.777,31.807-10.948
	C501.86,145.419,499.72,136.579,493.932,137.108z"/>
<path d="M460.168,372.318c-4.237-3.134-8.616-6.895-12.536-10.443c-4.509-4.081-8.723-8.516-13.44-12.363
	c-3.908-3.188-8.791-5.017-12.642-8.163c-5.381-4.396-12.479,2.397-7.717,7.717c4.592,5.131,10.3,9.697,15.447,14.326
	c2.713,2.44,5.497,4.404,8.513,5.904c0.878,0.881,1.763,1.753,2.677,2.591c3.818,3.498,7.892,7.239,12.007,10.367
	c3.882,2.952,10.786,5.337,15.204,2.126c0.826-0.601,1.708-1.581,1.557-2.715C468.545,376.438,463.985,375.141,460.168,372.318z"/>
<path d="M321.893,468.005c-0.944-6.252-2.14-12.498-3.261-18.72c-0.775-4.298-1.316-9.944-4.839-12.981
	c-2.836-2.446-8.118-1.881-8.992,2.374c-0.958,4.662,1.283,9.278,2.626,13.76c0.259,1.944,0.517,3.89,0.796,5.832
	c0.861,5.988,1.528,12.023,2.46,17.995c0.875,5.601,2.474,11.211,3.9,16.693c1.349,5.187,3.122,11.444,5.795,16.067
	c3.505,6.059,13.699,2.069,11.495-4.846C328.062,492.213,323.776,480.481,321.893,468.005z"/>
<path d="M208.518,439.013c-0.127-0.079-0.253-0.157-0.38-0.236c-0.996-0.617-2.419-0.626-3.414,0
	c-5.464,3.438-6.792,10.96-9.068,16.636c-2.167,5.403-7.44,12.919-4.312,18.63c2.573,4.697,8.985,3.053,10.614-1.387
	c3.518-9.596,6.358-18.998,8.457-28.98C210.804,441.828,210.147,440.024,208.518,439.013z"/>
<path d="M235.093,445.757c-0.194,0.028-0.389,0.056-0.583,0.084c-1.449,0.208-2.183,1.396-2.268,2.678
	c-3.279,4.951-4.741,11.237-6.091,16.899c-1.473,6.184-3.145,12.399,1.203,17.641c2.868,3.457,7.733,1.01,9.058-2.391
	c0.974-2.501,0.795-5.113,1.156-7.75c0.417-3.043,1.033-6.059,1.488-9.099c0.78-5.197,1.659-10.512,0.244-15.676
	C238.766,446.201,236.924,445.494,235.093,445.757z"/>
<path d="M265.766,449.573c-0.582-2.96-5.155-2.809-5.836,0c-1.671,6.898-1.641,13.281-1.566,20.331
	c0.071,6.669,0.851,14.074,4.31,19.915c2.878,4.86,10.402,2.723,10.508-2.846c0.119-6.198-2.139-12.548-3.131-18.65
	C269.019,461.982,267.003,455.869,265.766,449.573z"/>
<path d="M89.655,365.142c2.883-4.105-1.864-8.291-5.861-7.624c-5.611,0.937-11.729,5.61-16.46,8.584
	c-4.383,2.755-9.755,5.949-12.618,10.358c-1.279,1.971,0.387,4.824,2.715,4.732c5.88-0.231,11.025-3.582,16.197-5.998
	C79.104,372.636,86.065,370.254,89.655,365.142z"/>
<path d="M106.611,384.011c3.414-3.835,0.174-10.521-5.211-8.951c-6.456,1.882-11.849,6.939-17.045,10.997
	c-4.243,3.314-9.336,5.507-12.7,9.83c-1.914,2.46-0.648,5.434,2.412,5.824c5.301,0.674,10.783-2.821,14.745-5.001
	c2.855-1.572,5.23-3.822,7.983-5.541C100.372,388.932,103.736,387.242,106.611,384.011z"/>
<path d="M120.09,399.985c2.347-0.413-2.183,0.099-2.802,0.337c-1.241,0.476-2.385,1.302-3.408,2.144
	c-2.347,1.938-4.457,4.123-6.943,5.901c-4.991,3.571-8.091,8.373-12.117,12.858c-1.854,2.065-0.692,5.897,2.391,5.774
	c6.251-0.25,10.148-4.933,15.248-7.729c5.541-3.038,9.921-7.171,12.581-12.843C126.729,402.828,123.969,399.302,120.09,399.985z"/>
<path d="M49.836,295.655c5.988-1.039,11.324-2.165,15.148-7.268c1.316-1.756,0.396-5.022-1.555-5.927
	c-5.106-2.37-10.611,0.339-15.703,1.838c-6.297,1.854-12.514,3.394-18.321,6.539c-2.762,1.496-1.273,4.595,0.796,5.394l-0.081,0.081
	C35.938,298.37,43.878,296.688,49.836,295.655z"/>
<path d="M38.308,262.53c6.31,0.323,15.134,2.042,19.727-3.524c2.986-3.62,1.128-9.148-3.865-9.331
	c-6.048-0.222-12.722,0.465-18.744,1.066c-7.186,0.718-13.809,3.373-20.797,4.874c-2.971,0.639-3.143,5.672,0,6.179
	C22.543,263.069,30.327,262.121,38.308,262.53z"/>
<path d="M26.727,218.387c8.784,3.043,30.286,16.681,36.934,4.232c0.601-1.127,0.551-2.765-0.474-3.667
	c-4.27-3.761-10.7-4.443-16.088-5.628c-6.462-1.422-12.778-2.01-19.324-2.689C23.122,210.155,22.766,217.015,26.727,218.387z"/>
<path d="M81.542,116.245c1.602,1.734,2.76,3.797,4.271,5.61c2.983,3.58,9.449,8.07,13.248,2.745
	c3.454-4.843-2.986-8.02-5.652-10.985c-2.879-3.202-6.708-6.986-10.998-8.38c-0.269-0.142-0.574-0.244-0.917-0.295
	c-0.132-0.02-0.265-0.039-0.399-0.06c-3.203-0.478-5.638,2.339-4.147,5.395C78.099,112.639,79.783,114.341,81.542,116.245z"/>
<path d="M106.021,91.37c2.546,3.463,4.403,7.947,8.757,9.351c2.698,0.87,6.472-1.56,6.082-4.633
	c-1.322-10.445-10.856-16.429-17.817-23.314c-3.302-3.267-9.046,0.947-6.523,5.033C99.467,82.58,102.71,86.868,106.021,91.37z"/>
<path d="M125.719,51.434c0.918,1.801,1.337,4.06,2.021,5.909c1.358,3.677,2.737,7.418,4.214,11.042
	c2.516,6.166,4.763,13.415,12.773,12.288c2.63-0.371,4.545-4.031,3.645-6.421c-0.169-0.448-1.459-3.103-1.608-3.267
	c-0.33-0.975-0.57-1.998-1.036-2.94c-1.863-3.764-3.597-7.826-5.678-11.462c-2.23-3.895-5.443-11.697-10.606-12.449
	C124.651,43.436,122.577,48.773,125.719,51.434z"/>
<path d="M239.273,54.536c0.921,0.583,1.994,0.278,2.769-0.357c5.709-4.69,2.772-14.336,1.45-20.331
	c-0.464-2.102-0.984-4.199-1.5-6.289c-0.309-1.25-0.645-2.491-0.935-3.747c-0.118-0.528-0.215-1.06-0.304-1.594
	c1.4-2.996-2.673-6.425-5.981-4.965c-4.808,2.123-2.962,11.555-2.483,15.408C233.179,39.813,232.522,50.269,239.273,54.536z"/>
<path d="M280.972,50.593c-0.561-5.56,0.798-11.421,0.782-17.008c-0.014-5.22-0.043-12.211-2.769-16.785
	c-0.669-1.123-1.918-1.883-3.241-1.859c-0.199,0.004-0.4,0.008-0.599,0.011c-2.499,0.046-4.219,2.955-3.456,5.057
	c-0.987,5.802-1.151,11.56-1.906,17.431c-0.669,5.194-2.303,12.926,2.054,16.938C274.928,57.225,281.467,55.508,280.972,50.593z"/>
<path d="M313.535,50.284c2.361-3.927,3.523-9.326,5.001-13.644c1.768-5.165,2.167-10.483,3.552-15.647
	c0.815-3.039-2.632-5.857-5.404-4.154c-4.812,2.954-6.647,11.473-8.88,16.325c-2.399,5.212-6.407,11.426-3.695,17.12
	C305.932,54.108,311.567,53.558,313.535,50.284z"/>
<path d="M375.429,92.157c0.147-0.037,0.296-0.074,0.445-0.109c0.682-0.168,1.208-0.497,1.599-0.916
	c2.183-1.368,4.082-3.399,6.049-4.976c3.124-2.506,5.915-5.412,8.942-8.053c3.348-2.922,13.523-11.363,8.88-16.63
	c-4.646-5.271-12.67,4.453-15.666,7.494c-3.009,3.054-5.6,5.946-8.23,9.316c-1.266,1.622-2.724,3.11-3.832,4.863
	c-0.494,0.784-1.1,2.581-1.591,3.162C369.823,88.916,371.869,93.036,375.429,92.157z"/>
<path d="M394.547,101.754c-4.51,2.347-1.144,8.353,3.223,7.646c5.536-0.897,10.92-5.974,15.654-8.761
	c3.871-2.278,9.457-4.886,11.566-9.133c1.127-2.268,0.258-5.264-2.416-5.939c-5.318-1.342-9.143,0.904-13.616,3.919
	c-2.629,1.772-5.2,3.711-7.549,5.84C399.317,97.22,397.05,100.451,394.547,101.754z"/>
<path d="M418.939,127.609c6.528,2.854,13.945-1.251,20.274-3.294c5.802-1.873,13.469-3.842,18.019-8.117
	c3.192-2.999,0.8-8.997-3.648-8.806c-12.357,0.531-24.74,7.841-34.647,14.786C417.232,123.376,416.578,126.576,418.939,127.609z"/>
<path d="M476.95,205.148c-4.173,0.377-8.46,1.061-12.536,2.004c-3.943,0.912-8.094,1.081-11.78,2.756
	c-2.534,1.152-2.35,5.246,0,6.456c7.375,3.794,16.42,1.414,24.315,0.815c3.857-0.292,13.836,0.46,13.987-5.49
	C491.106,205.082,481.319,204.755,476.95,205.148z"/>
<path d="M470.975,247.811c-3.273,0.218-6.227,1.127-9.454,1.541c-3.405,0.437-6.459,0.298-9.565,1.861
	c-2.597,1.307-2.129,4.882,0,6.302c5.586,3.724,11.247,3.273,17.57,3.232c5.267-0.034,11.891,0.366,16.919-1.34
	c4.065-1.378,4.9-5.733,2.353-8.916C484.446,245.049,476.792,247.424,470.975,247.811z"/>
<path d="M469.475,289.197c-2.529-2.139-5.661-3.653-8.733-4.849c-2.832-1.104-6.351-0.823-8.993-2.078
	c-4.305-2.046-9.746,3.594-5.5,7.129c4.504,3.749,10.102,5.832,14.515,9.704c4.719,4.14,7.291,7.884,14.01,8.176
	c1.215,0.053,2.309-1.09,2.285-2.285C476.925,298.574,474.464,293.417,469.475,289.197z"/>
<path d="M349.588,423.705c-2.501-3.815-8.814-1.483-7.536,3.178c1.712,6.25,3.359,12.432,5.274,18.64
	c1.631,5.285,3.867,12.738,9.355,15.124c2.607,1.133,4.634,0.827,6.839-0.883c4.634-3.593-1.665-11.933-3.392-15.531
	C356.724,437.141,353.95,430.361,349.588,423.705z"/>
<path d="M385.987,409.659c-1.088-1.252-2.031-2.601-3.113-3.819c-0.258-0.291-3.212-3-2.21-1.65
	c-2.426-3.27-7.304-2.167-7.629,2.066c-0.431,5.611,4.805,12.599,7.416,17.308c2.552,4.6,9.656,14.966,16.143,10.781
	c6.357-4.101-1.848-12.238-4.35-15.78C390.137,415.583,388.396,412.434,385.987,409.659z"/>
<path d="M404.7,381.579c-3.303-3.236-9.416,1.048-6.616,5.106c3.857,5.588,8.258,9.415,13.217,13.997
	c3.265,3.018,11.068,9.777,15.774,5.64C436.504,398.035,408.595,385.394,404.7,381.579z"/>
<path d="M198.635,233.742c-2.005-1.382-3.607-1.436-5.921-1.806c-2.003-0.32-3.482-0.808-5.597-0.197
	c-6.242,1.803-11.214,7.983-11.51,14.503c-0.599,3.441-0.1,7.011,1.975,10.026c9.431,13.704,33.451,1.482,27.685-14.139
	C204.008,238.714,201.628,235.802,198.635,233.742z"/>
<path d="M289.77,235.891c-4.534-0.735-9.132-0.118-13.723-0.601c-5.184-0.545-10.447-0.274-15.646,0.02
	c-10.332,0.585-21.029,0.094-31.25,1.708c-7.742,1.223-8.123,8.442-6.433,14.861c0.845,3.209,1.843,6.487,3.292,9.506
	c1.259,3.298,2.83,6.468,4.477,9.306c3.857,6.642,11.176,10.499,18.518,12.158c8.93,2.018,19.006,3.018,27.402-1.224
	c7.218-3.646,12.657-9.017,15.484-16.594c1.575-4.223,2.981-8.923,3.187-13.453c0.194-4.303-1.067-8.027-1.803-12.181
	C293.004,237.854,291.329,236.143,289.77,235.891z M270.768,273.258c-5.879,2.573-12.451,1.335-18.603,0.363
	c-6.471-1.022-11.335-3.8-14.631-9.416c-0.095-0.163-0.194-0.337-0.292-0.508c2.197,0.198,4.463,0.118,6.551,0.155
	c5.796,0.102,11.6,0.047,17.398,0.084c4.175,0.027,8.19-0.72,12.387-0.718c2.75,0.001,5.528-0.277,8.273-0.709
	C279.666,267.388,275.977,270.979,270.768,273.258z M284.375,254.33c-3.861,0.108-7.788,1.165-11.647,1.232
	c-4.199,0.074-8.223,0.777-12.392,0.82c-5.513,0.056-11.03-0.025-16.543,0.069c-3.134,0.053-6.645-0.159-9.737,0.704
	c-1.147-2.873-1.976-5.875-1.85-8.316c0.109-2.117-0.243-1.552,1.344-2.093c1.062-0.362,3.284-0.347,4.418-0.536
	c3.227-0.538,6.358-0.573,9.646-0.602c6.44-0.057,12.877-0.224,19.316-0.378c3.25-0.077,6.588,0.238,9.817-0.003
	c0.287-0.022,0.624-0.102,0.978-0.204c2.162,0.127,4.379,0.083,6.527,0.218c0.344,1.557,0.654,3.109,0.648,4.756
	C284.891,251.452,284.681,252.898,284.375,254.33z"/>
<path d="M317.688,228.987c-5.734,2.908-10.214,9.157-8.372,15.799c0.287,1.035,0.74,2.01,1.302,2.926
	c1.036,2.939,3.272,5.521,6.43,7.174c5.227,2.738,12.769,2.63,16.992-1.939c4.773-5.165,4.703-12.162,1.671-18.134
	C332.071,227.646,324.85,225.355,317.688,228.987z"/>
<g>
</g>
<g>
</g>
<g>
</g>
<g>
</g>
<g>
</g>
<g>
</g>
<g>
</g>
<g>
</g>
<g>
</g>
<g>
</g>
<g>
</g>
<g>
</g>
<g>
</g>
<g>
</g>
<g>
</g>
</svg>
